<svg id="icn_android" xmlns="http://www.w3.org/2000/svg" width="36" height="36" viewBox="0 0 36 36">
  <g id="BG" opacity="0">
    <path id="Path_1572" data-name="Path 1572" d="M35,1V35H1V1H35m1-1H0V36H36Z" fill="#e6e6e6"/>
  </g>
  <path id="Path_1573" data-name="Path 1573" d="M22,29.5A2.5,2.5,0,0,0,24.5,27v1A1.51,1.51,0,0,1,23,29.5Zm-10,0A1.51,1.51,0,0,1,10.5,28V8A1.52,1.52,0,0,1,12,6.5H23A1.52,1.52,0,0,1,24.5,8V9A2.5,2.5,0,0,0,22,6.5H13A2.5,2.5,0,0,0,10.5,9V27A2.5,2.5,0,0,0,13,29.5Z"/>
  <path id="Path_1574" data-name="Path 1574" d="M23,6H12a2,2,0,0,0-2,2V28a2,2,0,0,0,2,2H23a2,2,0,0,0,2-2V8A2,2,0,0,0,23,6ZM13,29a2,2,0,0,1-2-2V9a2,2,0,0,1,2-2h9a2,2,0,0,1,2,2V27a2,2,0,0,1-2,2Z"/>
  <path id="Path_1575" data-name="Path 1575" d="M25.5,15.5Z" fill="#fff"/>
  <path id="Path_1576" data-name="Path 1576" d="M26,12H25v4h1V12Z"/>
  <circle id="Ellipse_93" data-name="Ellipse 93" cx="0.5" cy="0.5" r="0.5" transform="translate(13.5 9.5)" fill="#fff"/>
  <path id="Path_1577" data-name="Path 1577" d="M14,9a1,1,0,1,0,1,1A1,1,0,0,0,14,9Z"/>
  <path id="Path_1578" data-name="Path 1578" d="M14,16h7a3.56,3.56,0,0,0-1.36-2.29h0L20,12.8a.49.49,0,0,0-.27-.65.5.5,0,0,0-.65.27l-.33.8A3.75,3.75,0,0,0,17.5,13a3.3,3.3,0,0,0-1.1.2l-.33-.79a.5.5,0,0,0-.92.38l.36.89A3.63,3.63,0,0,0,14,16Zm5-2a.5.5,0,1,1-.5.5A.5.5,0,0,1,19,14Zm-3,1a.5.5,0,1,1,.5-.5A.5.5,0,0,1,16,15Zm-2,2h7v5a1.11,1.11,0,0,1-1,1H19v2.5a.5.5,0,0,1-1,0V23H17v2.5a.5.5,0,0,1-1,0V23H15a1.11,1.11,0,0,1-1-1Zm-1,.5v4a.5.5,0,0,1-1,0v-4a.5.5,0,0,1,1,0Zm10,0v4a.5.5,0,0,1-1,0v-4a.5.5,0,0,1,1,0Z"/>
</svg>
