<svg id="icn_user-research" xmlns="http://www.w3.org/2000/svg" width="36" height="36" viewBox="0 0 36 36">
  <g id="BG" opacity="0">
    <rect id="Rectangle_452" data-name="Rectangle 452" width="36" height="36" fill="none"/>
  </g>
  <path id="Path_1623" data-name="Path 1623" d="M24.268,23.79A9.047,9.047,0,0,0,27.5,16.24a9.78,9.78,0,0,0-10-9.74,9.78,9.78,0,0,0-10,9.74A10.44,10.44,0,0,0,17.76,26.5,6.13,6.13,0,0,0,21,26" fill="none" stroke="#000" stroke-miterlimit="10" stroke-width="1"/>
  <circle id="Ellipse_96" data-name="Ellipse 96" cx="3.5" cy="3.5" r="3.5" transform="translate(14 9.5)"/>
  <path id="Path_1624" data-name="Path 1624" d="M17.7,23a5.93,5.93,0,0,0,4.8-2.5c0-2-3-3.5-5-3.5s-5,2-5,3.5C13,22,15.82,23,17.7,23Z" stroke="#000" stroke-miterlimit="10" stroke-width="1"/>
  <line id="Line_108" data-name="Line 108" x2="6.5" y2="6.5" transform="translate(24 23.5)" fill="none" stroke="#000" stroke-miterlimit="10" stroke-width="1"/>
</svg>
