<svg id="icn_ios" xmlns="http://www.w3.org/2000/svg" width="36" height="36" viewBox="0 0 36 36">
  <g id="BG" opacity="0">
    <path id="Path_1588" data-name="Path 1588" d="M35,1V35H1V1H35m1-1H0V36H36Z" fill="#e6e6e6"/>
  </g>
  <path id="Path_1589" data-name="Path 1589" d="M22,29.5A2.51,2.51,0,0,0,24.5,27v1A1.52,1.52,0,0,1,23,29.5Zm-10,0A1.52,1.52,0,0,1,10.5,28V8A1.52,1.52,0,0,1,12,6.5H23A1.52,1.52,0,0,1,24.5,8V9A2.51,2.51,0,0,0,22,6.5H13A2.51,2.51,0,0,0,10.5,9V27A2.51,2.51,0,0,0,13,29.5Z"/>
  <path id="Path_1590" data-name="Path 1590" d="M23,6H12a2,2,0,0,0-2,2V28a2,2,0,0,0,2,2H23a2,2,0,0,0,2-2V8A2,2,0,0,0,23,6ZM13,29a2,2,0,0,1-2-2V9a2,2,0,0,1,2-2h9a2,2,0,0,1,2,2V27a2,2,0,0,1-2,2Z"/>
  <path id="Path_1591" data-name="Path 1591" d="M25.5,15.5Z" fill="#fff"/>
  <path id="Path_1592" data-name="Path 1592" d="M26,12H25v4h1V12Z"/>
  <path id="Path_1593" data-name="Path 1593" d="M15,8.5a.51.51,0,0,1-.5-.5V7.5h6V8a.51.51,0,0,1-.5.5Z" fill="#fff"/>
  <path id="Path_1594" data-name="Path 1594" d="M21,7H14V8a1,1,0,0,0,1,1h5a1,1,0,0,0,1-1Z"/>
  <path id="Path_1595" data-name="Path 1595" d="M12.5,15c.5,0,.5.29.5.5s0,.5-.5.5-.5-.29-.5-.5S12,15,12.5,15Zm.5,1.5v4H12v-4Z"/>
  <path id="Path_1596" data-name="Path 1596" d="M19,18c0,1.5-.5,2.5-2.5,2.5S14,19.5,14,18c0-2,.5-3,2.57-3S19,16,19,18Zm-4,0a1.33,1.33,0,0,0,1.5,1.5A1.33,1.33,0,0,0,18,18c0-1.5-.5-2-1.5-2S15,16.5,15,18Z"/>
  <path id="Path_1597" data-name="Path 1597" d="M23,19a1.32,1.32,0,0,1-.54,1.08A2.25,2.25,0,0,1,21,20.5a3.42,3.42,0,0,1-1.5-.5V19a8.22,8.22,0,0,0,.78.42,2.07,2.07,0,0,0,.72.08c1,0,1-.33,1-.5,0-.5-1-.79-1.18-.89l-.4-.21a1.75,1.75,0,0,1-.42-.31,1.64,1.64,0,0,1-.33-.44,1.6,1.6,0,0,1-.17-.65,1.37,1.37,0,0,1,.5-1.1,2,2,0,0,1,1.36-.4,3.44,3.44,0,0,1,.8.1,6,6,0,0,1,.84.41l-.5,1a5.45,5.45,0,0,0-1-.5c-.49-.11-1,0-1,.5s.83.67,1.17.83a4.46,4.46,0,0,1,.7.41,1.46,1.46,0,0,1,.44.49A1.65,1.65,0,0,1,23,19Z"/>
</svg>
