<svg id="icn_responsive_design" data-name="icn_responsive design" xmlns="http://www.w3.org/2000/svg" width="36" height="36" viewBox="0 0 36 36">
  <g id="BG" opacity="0">
    <path id="Path_1780" data-name="Path 1780" d="M35,1V35H1V1H35m1-1H0V36H36Z" fill="#e6e6e6"/>
  </g>
  <path id="Path_1781" data-name="Path 1781" d="M8,22.94a1.37,1.37,0,0,1-1-1.32V8.38A1.38,1.38,0,0,1,8.38,7H27.62A1.38,1.38,0,0,1,29,8.38v5.15A2,2,0,0,1,30,14V8.38A2.39,2.39,0,0,0,27.62,6H8.38A2.39,2.39,0,0,0,6,8.38V21.62A2.38,2.38,0,0,0,8,24Z"/>
  <path id="Path_1782" data-name="Path 1782" d="M19,28.5V28h0v-.07l-.25-3.5A.92.92,0,0,0,18.6,24H19V23H15v1h1.9a.92.92,0,0,0-.15.43l-.25,3.5V28H15v.5a2,2,0,0,1-.69,1.5h5.38A2,2,0,0,1,19,28.5Z"/>
  <path id="Path_1783" data-name="Path 1783" d="M12.5,20h-2a2,2,0,0,0-2,2v6a2,2,0,0,0,2,2h2a2,2,0,0,0,2-2V22A2,2,0,0,0,12.5,20ZM14,28a1,1,0,0,1-1,1H10a1,1,0,0,1-1-1V22a1,1,0,0,1,1-1h3a1,1,0,0,1,1,1Z"/>
  <circle id="Ellipse_97" data-name="Ellipse 97" cx="0.5" cy="0.5" r="0.5" transform="translate(9.5 21.5)"/>
  <path id="Path_1784" data-name="Path 1784" d="M28.08,14h-6.5a2,2,0,0,0-2,2V28a2,2,0,0,0,2,2h6.5a2,2,0,0,0,2-2V16A2,2,0,0,0,28.08,14Zm-3.25.5a.5.5,0,1,1-.5.5A.5.5,0,0,1,24.83,14.5Zm4.75,12a2,2,0,0,1-2,2h-5.5a2,2,0,0,1-2-2V18a2,2,0,0,1,2-2h5.5a2,2,0,0,1,2,2Z"/>
</svg>
