<svg id="icn_user-persona" xmlns="http://www.w3.org/2000/svg" width="36" height="36" viewBox="0 0 36 36">
  <g id="BG" opacity="0">
    <path id="Path_1619" data-name="Path 1619" d="M35,1V35H1V1H35m1-1H0V36H36Z" fill="#e6e6e6"/>
  </g>
  <circle id="Ellipse_95" data-name="Ellipse 95" cx="3.5" cy="3.5" r="3.5" transform="translate(14.5 11)"/>
  <path id="Path_1621" data-name="Path 1621" d="M18,24.5a6.28,6.28,0,0,1-4.48-1.68,5.07,5.07,0,0,1,4.69-4.32c2.45,0,4,2.18,4.27,4.32A6.26,6.26,0,0,1,18,24.5Z"/>
  <path id="Path_1622" data-name="Path 1622" d="M18.21,19c2,0,3.4,1.78,3.73,3.63A5.81,5.81,0,0,1,18,24a5.81,5.81,0,0,1-3.94-1.37A4.54,4.54,0,0,1,18.21,19m0-1A5.55,5.55,0,0,0,13,23a6.76,6.76,0,0,0,5,2,6.76,6.76,0,0,0,5-2C22.77,20.37,20.85,18,18.21,18Z"/>
  <g id="Rectangle_459" data-name="Rectangle 459" transform="translate(6 6)" fill="none" stroke="#000" stroke-width="1">
    <rect width="24" height="24" rx="4" stroke="none"/>
    <rect x="0.5" y="0.5" width="23" height="23" rx="3.5" fill="none"/>
  </g>
</svg>
