<svg id="icn_mock-up" xmlns="http://www.w3.org/2000/svg" width="36" height="36" viewBox="0 0 36 36">
  <g id="BG" opacity="0">
    <path id="Path_1598" data-name="Path 1598" d="M35,1V35H1V1H35m1-1H0V36H36Z" fill="#e6e6e6"/>
  </g>
  <path id="Path_1599" data-name="Path 1599" d="M15.94,29.37A1.48,1.48,0,0,1,15,29L7.21,22.32a1.48,1.48,0,0,1-.52-1,1.45,1.45,0,0,1,.36-1.09L18.93,6.41a1.5,1.5,0,0,1,1.14-.52,1.48,1.48,0,0,1,1,.37l7.75,6.67A1.51,1.51,0,0,1,29,15.06l-2.17,2.52-1.1-1.1,1.21-1.4a2.51,2.51,0,0,0-.26-3.54L21.83,7.4a2.51,2.51,0,0,0-3.53.27L8.28,19.3a2.51,2.51,0,0,0-.61,1.82,2.48,2.48,0,0,0,.87,1.71L13.34,27a2.51,2.51,0,0,0,3.54-.26l5.61-6.51,1.1,1.09-6.51,7.55a1.49,1.49,0,0,1-1.14.5ZM20,9.22a.28.28,0,0,1-.13-.07c-.05-.06-.14-.14,0-.3A.3.3,0,0,1,20,8.78a.28.28,0,0,1,.13.07c.05.06.14.14,0,.3A.3.3,0,0,1,20,9.22Z"/>
  <path id="Path_1600" data-name="Path 1600" d="M28,12.86l.52.45a1.005,1.005,0,0,1,.11,1.42l-1.82,2.11-.39-.38.91-1.06A3,3,0,0,0,28,13.22a2.23,2.23,0,0,0-.05-.36m-5.43,8.07.38.39-6.2,7.2a1,1,0,0,1-1.42.1l-.65-.56h.35a3,3,0,0,0,2.28-1l5.26-6.11m-15.34.29v.18a.78.78,0,0,1,0-.14h0M20.07,5.39a2,2,0,0,0-1.52.7L6.67,19.87a2,2,0,0,0,.21,2.83l7.75,6.68a2,2,0,0,0,2.83-.21L29.34,15.38a2,2,0,0,0-.21-2.82L21.38,5.88a2,2,0,0,0-1.31-.49ZM15,27.08a2,2,0,0,1-1.31-.49L8.86,22.45a2,2,0,0,1-.21-2.83L18.68,8a2.012,2.012,0,0,1,2.83-.22l4.8,4.14a2,2,0,0,1,.21,2.83l-10,11.63a2,2,0,0,1-1.52.7ZM24,21l-1-1,2.5-3,1,1ZM20,8.28a.82.82,0,0,0-.52.22.69.69,0,0,0,0,1,.65.65,0,0,0,.48.22.82.82,0,0,0,.52-.22.69.69,0,0,0,0-1A.65.65,0,0,0,20,8.28Z"/>
  <rect id="Rectangle_445" data-name="Rectangle 445" width="1" height="4.22" transform="translate(21.319 11.287) rotate(-50.05)"/>
  <path id="Path_1601" data-name="Path 1601" d="M22,11.22l2.47,2.07h0L22,11.22h0m-.1-1.41-1.29,1.54,4,3.35,1.29-1.54-4-3.35Z"/>
  <rect id="Rectangle_446" data-name="Rectangle 446" width="6" height="2.73" transform="translate(17.324 18.386) rotate(-50.05)"/>
  <path id="Path_1602" data-name="Path 1602" d="M21.24,14.48l1.32,1.11-3.21,3.83L18,18.31l3.21-3.83m-.13-1.41-4.49,5.37,2.86,2.39L24,15.46l-2.86-2.39Z"/>
  <line id="Line_98" data-name="Line 98" x2="2.29" y2="1.92" transform="translate(17.36 10.58)" fill="none" stroke="#000" stroke-miterlimit="10" stroke-width="1"/>
  <line id="Line_99" data-name="Line 99" x2="2.28" y2="1.92" transform="translate(15.44 12.88)" fill="none" stroke="#000" stroke-miterlimit="10" stroke-width="1"/>
  <line id="Line_100" data-name="Line 100" x2="2.29" y2="1.92" transform="translate(13.51 15.18)" fill="none" stroke="#000" stroke-miterlimit="10" stroke-width="1"/>
  <line id="Line_101" data-name="Line 101" x2="6.29" y2="5.27" transform="translate(11.58 17.48)" fill="none" stroke="#000" stroke-miterlimit="10" stroke-width="1"/>
  <line id="Line_102" data-name="Line 102" x2="6.28" y2="5.27" transform="translate(9.66 19.78)" fill="none" stroke="#000" stroke-miterlimit="10" stroke-width="1"/>
</svg>
