<svg id="icn_mock-up" xmlns="http://www.w3.org/2000/svg" width="44" height="44" viewBox="0 0 44 44">
  <g id="BG" opacity="0">
    <path id="Path_1598" data-name="Path 1598" d="M42.778,1.222V42.778H1.222V1.222H42.778M44,0H0V44H44Z" fill="#e6e6e6"/>
  </g>
  <path id="Path_1599" data-name="Path 1599" d="M17.981,34.552a1.806,1.806,0,0,1-1.147-.452L7.326,25.946a1.807,1.807,0,0,1-.635-1.221,1.77,1.77,0,0,1,.439-1.331l14.5-16.87a1.831,1.831,0,0,1,1.391-.635,1.806,1.806,0,0,1,1.221.452L33.7,14.484a1.843,1.843,0,0,1,.22,2.6L31.273,20.16,29.93,18.817l1.477-1.709a3.064,3.064,0,0,0-.317-4.321L25.17,7.733a3.063,3.063,0,0,0-4.308.33l-12.23,14.2a3.064,3.064,0,0,0-.745,2.222,3.027,3.027,0,0,0,1.062,2.087l5.859,5.09a3.063,3.063,0,0,0,4.321-.317l6.847-7.947,1.343,1.331-7.946,9.216a1.818,1.818,0,0,1-1.391.61Zm4.955-24.6a.342.342,0,0,1-.159-.085c-.061-.073-.171-.171,0-.366a.366.366,0,0,1,.159-.085A.342.342,0,0,1,23.1,9.5c.061.073.171.171,0,.366A.366.366,0,0,1,22.937,9.955Z" transform="translate(1.505 1.326)" fill="#fff"/>
  <path id="Path_1600" data-name="Path 1600" d="M32.816,14.51l.635.549a1.227,1.227,0,0,1,.134,1.734l-2.222,2.576-.476-.464L32,17.611a3.663,3.663,0,0,0,.818-2.661,2.723,2.723,0,0,0-.061-.44m-6.629,9.852.464.476-7.568,8.79a1.221,1.221,0,0,1-1.733.122l-.793-.684h.427a3.662,3.662,0,0,0,2.783-1.221l6.421-7.46M7.4,24.741v.22a.952.952,0,0,1,0-.171h0M23.136,5.39a2.441,2.441,0,0,0-1.856.855L6.778,23.068a2.442,2.442,0,0,0,.256,3.455l9.461,8.155a2.441,2.441,0,0,0,3.455-.256l14.5-16.836a2.442,2.442,0,0,0-.256-3.443L24.735,5.988a2.441,2.441,0,0,0-1.6-.6ZM16.947,31.871a2.441,2.441,0,0,1-1.6-.6l-5.9-5.054A2.442,2.442,0,0,1,9.2,22.763L21.439,8.576a2.456,2.456,0,0,1,3.455-.269l5.859,5.054a2.442,2.442,0,0,1,.256,3.455L18.8,31.016a2.441,2.441,0,0,1-1.855.855Zm10.986-7.423-1.221-1.221,3.052-3.663,1.221,1.221ZM23.05,8.918a1,1,0,0,0-.635.269.842.842,0,0,0,0,1.221.793.793,0,0,0,.586.269,1,1,0,0,0,.635-.269.842.842,0,0,0,0-1.221A.793.793,0,0,0,23.05,8.918Z" transform="translate(1.391 1.213)" fill="#fff"/>
  <rect id="Rectangle_445" data-name="Rectangle 445" width="1.225" height="5.17" transform="translate(26.049 13.794) rotate(-50.05)"/>
  <path id="Path_1601" data-name="Path 1601" d="M22.313,11.537l3.026,2.536h0l-3.026-2.536h0M22.19,9.81,20.61,11.7l4.9,4.1,1.58-1.887-4.9-4.1Z" transform="translate(4.57 2.176)" fill="#fff"/>
  <rect id="Rectangle_446" data-name="Rectangle 446" width="7.351" height="3.345" transform="translate(21.164 22.477) rotate(-50.05)" fill="#fff"/>
  <path id="Path_1602" data-name="Path 1602" d="M22.287,14.8l1.617,1.36-3.933,4.692-1.654-1.36L22.25,14.8m-.159-1.727-5.5,6.579,3.5,2.928L25.668,16l-3.5-2.928Z" transform="translate(3.674 2.894)" fill="#fff"/>
  <line id="Line_98" data-name="Line 98" x2="2.805" y2="2.352" transform="translate(21.214 12.929)" fill="none" stroke="#fff" stroke-miterlimit="10" stroke-width="1"/>
  <line id="Line_99" data-name="Line 99" x2="2.793" y2="2.352" transform="translate(18.868 15.74)" fill="none" stroke="#fff" stroke-miterlimit="10" stroke-width="1"/>
  <line id="Line_100" data-name="Line 100" x2="2.805" y2="2.352" transform="translate(16.51 18.551)" fill="none" stroke="#fff" stroke-miterlimit="10" stroke-width="1"/>
  <line id="Line_101" data-name="Line 101" x2="7.706" y2="6.456" transform="translate(14.146 21.356)" fill="none" stroke="#fff" stroke-miterlimit="10" stroke-width="1"/>
  <line id="Line_102" data-name="Line 102" x2="7.694" y2="6.456" transform="translate(11.801 24.166)" fill="none" stroke="#fff" stroke-miterlimit="10" stroke-width="1"/>
</svg>
