<svg xmlns="http://www.w3.org/2000/svg" width="72.076" height="72.612" viewBox="0 0 72.076 72.612">
  <g id="noun-time-4274758" transform="translate(-73.937 -17.492)">
    <path id="Path_1659" data-name="Path 1659" d="M435.23,126.968a1.21,1.21,0,0,0,1.653.443l3.111-1.8a24.084,24.084,0,0,1,1.079,2.376,1.21,1.21,0,1,0,2.259-.866A26.5,26.5,0,0,0,439,119.7a1.21,1.21,0,1,0-1.865,1.542,24.3,24.3,0,0,1,1.647,2.28l-3.108,1.795A1.211,1.211,0,0,0,435.23,126.968Z" transform="translate(-313.06 -87.692)" fill="#414057"/>
    <path id="Path_1660" data-name="Path 1660" d="M220.631,136.575l-6.873-.763a1.191,1.191,0,0,0-.989.347l-2.42,2.42a1.208,1.208,0,0,0,0,1.711l2.42,2.42a1.216,1.216,0,0,0,.989.347l6.873-.763a4.83,4.83,0,1,0,6.671-6.808l.842-9.256a1.213,1.213,0,0,0-.35-.964l-2.42-2.42a1.208,1.208,0,0,0-1.711,0l-2.42,2.42a1.211,1.211,0,0,0-.35.964l.842,9.256a4.864,4.864,0,0,0-1.1,1.088Zm-6.561,4.013-1.153-1.153,1.153-1.153,5.66.628a4.838,4.838,0,0,0-.053.525,4.714,4.714,0,0,0,.053.525Zm10.448,1.267a2.42,2.42,0,1,1,2.42-2.42A2.423,2.423,0,0,1,224.517,141.855Zm-1.164-15.277,1.164-1.164,1.164,1.164-.733,8.06c-.144-.013-.284-.043-.431-.043s-.287.03-.431.044Z" transform="translate(-119.115 -90.477)" fill="#414057"/>
    <path id="Path_1661" data-name="Path 1661" d="M158.386,54.248a4.838,4.838,0,0,0-3.649-1.66h-4.306V48.24l8.048-1.79a1.212,1.212,0,0,0,.92-1.444l-1.049-4.725a1.209,1.209,0,0,0-1.444-.918l-7.517,1.67A31.428,31.428,0,0,0,98.574,25.007a1.21,1.21,0,0,0,1.574,1.839,29.009,29.009,0,0,1,46.879,14.711l-1.013.225a3.607,3.607,0,0,0-2.844,3.543v2.42H139.54a1.21,1.21,0,0,0,0,2.42h3.631v2.42h-9.147a4.792,4.792,0,0,0-4.814,4.874c-6.45.225-13.963,1.926-13.963,10.858a1.21,1.21,0,0,0,1.21,1.21h1.21v.225a4,4,0,0,0,.415,1.763,3.587,3.587,0,0,0-.409,1.577,23.951,23.951,0,0,1-9.725-2.632l1.78-3.084a1.21,1.21,0,1,0-2.1-1.21l-1.778,3.08a24.463,24.463,0,0,1-7.184-7.176l3.085-1.781a1.21,1.21,0,0,0-1.21-2.1l-3.088,1.783a23.973,23.973,0,0,1-2.632-9.812h3.569a1.21,1.21,0,1,0,0-2.42H94.824a24.018,24.018,0,0,1,2.622-9.817l3.1,1.789a1.21,1.21,0,0,0,1.21-2.1l-3.1-1.787a24.365,24.365,0,0,1,7.186-7.186l1.787,3.1a1.21,1.21,0,0,0,2.1-1.21l-1.789-3.1a24.021,24.021,0,0,1,9.817-2.622v3.569a1.21,1.21,0,1,0,2.42,0V24.807A24.243,24.243,0,0,1,130,27.434l-1.791,3.1a1.21,1.21,0,0,0,2.1,1.21l1.792-3.105a23.833,23.833,0,0,1,2.283,1.645,1.21,1.21,0,0,0,1.541-1.866,26.624,26.624,0,1,0-18.25,47.125v.037a3.6,3.6,0,0,0,.937,2.411A29.028,29.028,0,0,1,96.855,30.139a1.21,1.21,0,1,0-1.838-1.573A31.449,31.449,0,0,0,117.67,80.391c0,.011,0,.022,0,.032a3.588,3.588,0,0,0,.223,1.21h-1.433a1.21,1.21,0,0,0-1.21,1.21v1.21A6.058,6.058,0,0,0,121.3,90.1h4.93a1.21,1.21,0,1,0,0-2.42H121.3a3.635,3.635,0,0,1-3.631-3.631H144.29a3.635,3.635,0,0,1-3.631,3.631h-9.592a1.21,1.21,0,0,0,0,2.42h9.592a6.058,6.058,0,0,0,6.051-6.051v-1.21a1.21,1.21,0,0,0-1.21-1.21h-1.433a3.4,3.4,0,0,0,0-2.42h10.109l-1.024,7.427a1.218,1.218,0,0,1-1.2,1.044h-4.031a1.21,1.21,0,1,0,0,2.42h4.031a3.645,3.645,0,0,0,3.6-3.135l3.983-28.878a4.841,4.841,0,0,0-1.146-3.842Zm-12.8-8.921a1.2,1.2,0,0,1,.948-1.181l9.71-2.158.525,2.362-7.814,1.738a1.208,1.208,0,0,0-.948,1.18v5.32h-2.42ZM132.2,55.839a2.416,2.416,0,0,1,1.824-.83h20.713a2.4,2.4,0,0,1,2.408,2.42H131.618a2.4,2.4,0,0,1,.583-1.59Zm10.311,4.01h14.335l-.668,4.841h-9.993a8.608,8.608,0,0,0-3.675-4.841ZM121.3,76.792a1.212,1.212,0,0,1-1.21-1.21V73.413a3.988,3.988,0,0,0,2.367.267,5.942,5.942,0,0,1,4.221.731,8.355,8.355,0,0,0,8.606,0,5.944,5.944,0,0,1,4.221-.731,3.972,3.972,0,0,0,2.367-.266v2.168a1.212,1.212,0,0,1-1.21,1.21Zm13.312,4.034-1.21-1.613h2.42Zm-4.751-11.295a1.21,1.21,0,0,0,0-2.42H117.724c.419-4.212,3.157-6.4,8.977-7.047a1.19,1.19,0,0,0-.563,1,1.21,1.21,0,1,0,1.7-1.1c.97-.071,2.014-.108,3.141-.108s2.171.036,3.141.108a1.209,1.209,0,1,0,1.7,1.1,1.189,1.189,0,0,0-.563-1c5.82.65,8.558,2.834,8.977,7.047H134.7a1.21,1.21,0,1,0,0,2.42h7.171v.225a1.583,1.583,0,0,1-1.893,1.55,8.34,8.34,0,0,0-5.942,1.03,5.933,5.933,0,0,1-6.115,0,8.341,8.341,0,0,0-5.942-1.03,1.583,1.583,0,0,1-1.893-1.55v-.225Zm-9.771,10.892a1.212,1.212,0,0,1,1.21-1.21h9.076l1.815,2.42H121.3A1.212,1.212,0,0,1,120.087,80.422Zm21.783,0a1.212,1.212,0,0,1-1.21,1.21h-3.631l1.815-2.42h1.815A1.211,1.211,0,0,1,141.87,80.422Zm2.2-3.631a3.588,3.588,0,0,0,.223-1.21v-2.42a3.586,3.586,0,0,0-.415-1.642,3.993,3.993,0,0,0,.415-1.763v-.225h1.21a1.21,1.21,0,0,0,1.21-1.21c0-.426-.039-.816-.071-1.21h9.206l-1.335,9.681Z" transform="translate(-13.564)" fill="#414057"/>
    <path id="Path_1662" data-name="Path 1662" d="M448.02,342.46a1.21,1.21,0,1,1-1.21-1.21,1.21,1.21,0,0,1,1.21,1.21" transform="translate(-322.135 -278.98)" fill="#414057"/>
    <path id="Path_1663" data-name="Path 1663" d="M386.77,351.21a1.21,1.21,0,1,1-1.21-1.21,1.21,1.21,0,0,1,1.21,1.21" transform="translate(-269.356 -286.52)" fill="#414057"/>
    <path id="Path_1664" data-name="Path 1664" d="M343.02,342.46a1.21,1.21,0,1,1-1.21-1.21,1.21,1.21,0,0,1,1.21,1.21" transform="translate(-231.657 -278.98)" fill="#414057"/>
  </g>
</svg>
