<svg xmlns="http://www.w3.org/2000/svg" width="72.107" height="72.108" viewBox="0 0 72.107 72.108">
  <g id="noun-meal-4274978" transform="translate(-74.339 -17.555)">
    <path id="Path_1665" data-name="Path 1665" d="M156.108,52.087a1.2,1.2,0,1,0-1.7,1.7l7.836,7.834a3.6,3.6,0,0,1,0,5.1L154.6,74.367,136.756,56.524l10.2-10.2,4.06,4.059a1.2,1.2,0,0,0,1.7-1.7L131.657,27.635a6.007,6.007,0,0,0-8.5,0L104.306,46.49a1.2,1.2,0,1,0,1.7,1.7l5.262-5.262,17.842,17.844L114.666,75.215,99.372,59.921a3.6,3.6,0,0,1,0-5.1l3.235-3.236a1.2,1.2,0,1,0-1.7-1.7l-3.235,3.236a6.015,6.015,0,0,0,0,8.5l32.286,32.286h0a6.015,6.015,0,0,0,8.5,0l25.489-25.489a6.015,6.015,0,0,0,0-8.5ZM112.972,41.229l11.9-11.9h0a3.692,3.692,0,0,1,5.1,0l15.287,15.3L130.81,59.073Zm23.791,50.979h0a3.6,3.6,0,0,1-5.1,0l-15.3-15.294,18.691-18.691L152.9,76.066Z" transform="translate(-20.437 -7.178)" fill="#414057"/>
    <path id="Path_1666" data-name="Path 1666" d="M338.514,333.352h-4.806a2.4,2.4,0,0,0-2.4-2.4h-2.435a2.365,2.365,0,0,0-1.812-.852h-2.4a2.4,2.4,0,0,0-2.4,2.4v12.016a2.4,2.4,0,0,0,2.4,2.4h2.426a2.388,2.388,0,0,0,1.821.854h2.4a2.4,2.4,0,0,0,2.4-2.4h4.806a2.4,2.4,0,0,0,2.4-2.4v-7.21a2.4,2.4,0,0,0-2.4-2.406Zm-13.86-.85,2.009-.009h0a2.408,2.408,0,0,0-.165.858v11.166h-1.844Zm13.86,10.462h-4.806a2.4,2.4,0,0,0-2.4,2.4h-2.4V333.352h2.4a2.4,2.4,0,0,0,2.4,2.4h4.806Z" transform="translate(-215.69 -269.622)" fill="#414057"/>
    <path id="Path_1667" data-name="Path 1667" d="M381.833,398.752a1.2,1.2,0,1,1-1.2-1.2,1.2,1.2,0,0,1,1.2,1.2" transform="translate(-265.017 -327.812)" fill="#414057"/>
    <path id="Path_1668" data-name="Path 1668" d="M408.083,381.252a1.2,1.2,0,1,1-1.2-1.2,1.2,1.2,0,0,1,1.2,1.2" transform="translate(-287.663 -312.716)" fill="#414057"/>
    <path id="Path_1669" data-name="Path 1669" d="M173.173,227.16a7.113,7.113,0,0,0,1.768.223,6.979,6.979,0,0,0,4.957-2.068l.474-.481h0a7,7,0,0,0,1.221-8.315l-1.348-2.505a7.048,7.048,0,0,0-12.967,5.327l.876,2.978h0a6.987,6.987,0,0,0,5.021,4.842Zm-1.987-13.475a4.634,4.634,0,0,1,2.849-.979,4.745,4.745,0,0,1,.961.1,4.638,4.638,0,0,1,3.131,2.344l1.35,2.507a4.615,4.615,0,0,1-.806,5.485l-.472.474h0a4.645,4.645,0,0,1-7.74-1.974l-.876-2.979a4.621,4.621,0,0,1,1.6-4.977Z" transform="translate(-81.753 -166.288)" fill="#414057"/>
    <path id="Path_1670" data-name="Path 1670" d="M209.814,267.369a3.6,3.6,0,0,0,2.55-6.153,3.691,3.691,0,0,0-5.1,0,3.6,3.6,0,0,0,2.549,6.153Zm-.85-4.454a1.2,1.2,0,1,1,1.7,1.7,1.226,1.226,0,0,1-1.7,0A1.2,1.2,0,0,1,208.964,262.914Z" transform="translate(-115.585 -209.319)" fill="#414057"/>
    <path id="Path_1671" data-name="Path 1671" d="M278.74,95.3a4.761,4.761,0,0,0-1.4-3.408,4.913,4.913,0,0,0-5.947-.678,4.914,4.914,0,0,0-5.948.678,4.781,4.781,0,0,0-1.393,3.472,3.6,3.6,0,0,0,1.755,6.9,4.192,4.192,0,0,0,1.422.543,3.566,3.566,0,0,0,2.258,4.379V108.6a1.2,1.2,0,0,0,1.2,1.2h4.806a1.2,1.2,0,0,0,1.2-1.2V107.19a3.613,3.613,0,0,0,2.4-3.4c0-.071-.013-.137-.017-.207h0a4.629,4.629,0,0,0,.806-.643,4.815,4.815,0,0,0,0-6.8,4.669,4.669,0,0,0-1.147-.839Zm-3.244,9.688h0a1.2,1.2,0,0,0-1.2,1.2v1.2h-2.4v-1.2a1.2,1.2,0,0,0-1.2-1.2,1.2,1.2,0,1,1,0-2.4,1.2,1.2,0,0,0,1.2-1.2,1.2,1.2,0,1,1,2.4,0,1.2,1.2,0,0,0,1.2,1.2,1.2,1.2,0,0,1,0,2.4Zm1.047-4.652a3.6,3.6,0,0,0-6.9,0,3.6,3.6,0,0,0-.6.248,1.184,1.184,0,0,0-.745-.12,1.8,1.8,0,0,1-1.442-.393,1.192,1.192,0,0,0-1.088-.232,1.2,1.2,0,1,1-.346-2.344,1.2,1.2,0,0,0,1.131-1.535,2.4,2.4,0,0,1,.593-2.366,2.461,2.461,0,0,1,3.4,0,1.237,1.237,0,0,0,1.7,0,2.458,2.458,0,0,1,3.4,0,2.388,2.388,0,0,1,.636,2.225,1.2,1.2,0,0,0,.852,1.42,2.355,2.355,0,0,1,1.765,2.3,2.4,2.4,0,0,1-.7,1.7c-.028.028-.062.047-.09.073h0a3.609,3.609,0,0,0-1.56-.976Z" transform="translate(-163.568 -62.94)" fill="#414057"/>
    <path id="Path_1672" data-name="Path 1672" d="M312.713,130.152a1.2,1.2,0,1,1-1.2-1.2,1.2,1.2,0,0,1,1.2,1.2" transform="translate(-205.389 -96.098)" fill="#414057"/>
    <path id="Path_1673" data-name="Path 1673" d="M343.653,123.952a1.2,1.2,0,1,1-1.2-1.2,1.2,1.2,0,0,1,1.2,1.2" transform="translate(-232.08 -90.749)" fill="#414057"/>
    <path id="Path_1674" data-name="Path 1674" d="M446.949,221.653a4.807,4.807,0,0,0-6.8,6.8,4.732,4.732,0,0,0,2.17,1.229,4.675,4.675,0,0,0,3.4,3.4,4.708,4.708,0,0,0,4.374,3.557h.062a1.2,1.2,0,0,0,1.2-1.264,2.362,2.362,0,0,1,2.513-2.511,1.182,1.182,0,0,0,.912-.351,1.2,1.2,0,0,0,.351-.914,4.791,4.791,0,0,0-1.391-3.146,4.612,4.612,0,0,0-2.155-1.188,4.746,4.746,0,0,0-1.241-2.21,4.631,4.631,0,0,0-2.156-1.188,4.768,4.768,0,0,0-1.243-2.211Zm-4.6,5.476a2.28,2.28,0,0,1-.5-.372,2.4,2.4,0,1,1,3.4-3.4,2.3,2.3,0,0,1,.386.532,4.617,4.617,0,0,0-2.085,1.168,4.754,4.754,0,0,0-1.2,2.072Zm10.07,3.514a4.7,4.7,0,0,0-3.283,3.28,2.346,2.346,0,0,1-.488-.375,2.4,2.4,0,1,1,3.4-3.4,2.31,2.31,0,0,1,.372.489Zm-3.386-3.355a4.606,4.606,0,0,0-2.086,1.163,4.746,4.746,0,0,0-1.2,2.073,2.252,2.252,0,0,1-.5-.374,2.4,2.4,0,0,1,0-3.4,2.461,2.461,0,0,1,3.4,0,2.236,2.236,0,0,1,.391.531Z" transform="translate(-316.185 -174.856)" fill="#414057"/>
    <path id="Path_1675" data-name="Path 1675" d="M456.439,36.086,448.963,28.6a1.2,1.2,0,0,0-1.7,1.7l7.482,7.482a1.2,1.2,0,0,1,0,1.7,1.227,1.227,0,0,1-1.7,0l-9.456-9.456a5.184,5.184,0,0,0,.961-.739c2.342-2.343,1.961-6.535-.85-9.347s-7-3.19-9.346-.85-1.962,6.535.85,9.346a7.993,7.993,0,0,0,4.716,2.353,6.485,6.485,0,0,0,.742.043c.1,0,.2-.023.306-.028l10.377,10.377a3.6,3.6,0,1,0,5.1-5.1ZM436.9,26.739c-1.874-1.873-2.255-4.542-.85-5.948a3.052,3.052,0,0,1,2.2-.841,5.466,5.466,0,0,1,3.743,1.69c1.873,1.874,2.254,4.543.85,5.948a3.171,3.171,0,0,1-2.665.815,5.593,5.593,0,0,1-3.281-1.664Z" transform="translate(-311.076)" fill="#414057"/>
    <path id="Path_1676" data-name="Path 1676" d="M103.042,356.888a7.726,7.726,0,0,0-2.352-5.752l-.85-.85-3.4-3.4a1.2,1.2,0,1,0-1.7,1.7l2.549,2.549-1.7,1.7-2.549-2.55a1.2,1.2,0,0,0-1.7,1.7l2.549,2.55-1.7,1.7-2.55-2.55a1.2,1.2,0,0,0-1.7,1.7l4.249,4.249a8.008,8.008,0,0,0,4.715,2.353,6.883,6.883,0,0,0,.743.042,5.385,5.385,0,0,0,3.886-1.545,5.058,5.058,0,0,0,.748-.953l9.449,9.449a1.2,1.2,0,0,1,0,1.7,1.226,1.226,0,0,1-1.7,0l-7.425-7.419a1.2,1.2,0,1,0-1.7,1.7l7.419,7.419h0a3.6,3.6,0,1,0,5.1-5.1Zm-3.2,1.9a3.184,3.184,0,0,1-2.664.813,5.593,5.593,0,0,1-3.283-1.664l5.1-5.1c1.875,1.874,2.257,4.543.851,5.949Z" transform="translate(-13.269 -283.791)" fill="#414057"/>
  </g>
</svg>
