<?xml version="1.0" encoding="UTF-8"?>
<svg width="700pt" height="700pt" version="1.1" viewBox="0 0 700 700" xmlns="http://www.w3.org/2000/svg" xmlns:xlink="http://www.w3.org/1999/xlink">
 <defs>
  <symbol id="t" overflow="visible">
   <path d="m19.547-1.1719c-1.0117 0.52344-2.0625 0.91406-3.1562 1.1719-1.0938 0.26953-2.2344 0.40625-3.4219 0.40625-3.543 0-6.3516-0.98828-8.4219-2.9688-2.0625-1.9766-3.0938-4.6602-3.0938-8.0469 0-3.4062 1.0312-6.0977 3.0938-8.0781 2.0703-1.9766 4.8789-2.9688 8.4219-2.9688 1.1875 0 2.3281 0.13672 3.4219 0.40625 1.0938 0.26172 2.1445 0.65625 3.1562 1.1875v4.3906c-1.0234-0.6875-2.0273-1.1914-3.0156-1.5156-0.98047-0.32031-2.0156-0.48438-3.1094-0.48438-1.9609 0-3.5 0.625-4.625 1.875-1.1172 1.25-1.6719 2.9805-1.6719 5.1875 0 2.1875 0.55469 3.9141 1.6719 5.1719 1.125 1.25 2.6641 1.875 4.625 1.875 1.0938 0 2.1289-0.16016 3.1094-0.48438 0.98828-0.32031 1.9922-0.82812 3.0156-1.5156z"/>
  </symbol>
  <symbol id="d" overflow="visible">
   <path d="m14.297-11.609c-0.44922-0.20703-0.89062-0.35938-1.3281-0.45312-0.4375-0.10156-0.88281-0.15625-1.3281-0.15625-1.3125 0-2.3242 0.42188-3.0312 1.2656-0.71094 0.83594-1.0625 2.0391-1.0625 3.6094v7.3438h-5.0938v-15.953h5.0938v2.625c0.65625-1.0508 1.4062-1.8164 2.25-2.2969 0.85156-0.47656 1.875-0.71875 3.0625-0.71875 0.17578 0 0.36328 0.011719 0.5625 0.03125 0.19531 0.011719 0.48438 0.042969 0.85938 0.09375z"/>
  </symbol>
  <symbol id="c" overflow="visible">
   <path d="m18.375-8.0156v1.4531h-11.922c0.125 1.1992 0.55469 2.0938 1.2969 2.6875 0.73828 0.59375 1.7734 0.89062 3.1094 0.89062 1.0703 0 2.1719-0.15625 3.2969-0.46875 1.125-0.32031 2.2812-0.80469 3.4688-1.4531v3.9375c-1.2109 0.46094-2.418 0.80469-3.625 1.0312-1.2109 0.22656-2.4141 0.34375-3.6094 0.34375-2.8984 0-5.1484-0.72656-6.75-2.1875-1.5938-1.4688-2.3906-3.5312-2.3906-6.1875 0-2.5938 0.78516-4.6328 2.3594-6.125 1.5703-1.5 3.7344-2.25 6.4844-2.25 2.5078 0 4.5156 0.75781 6.0156 2.2656 1.5078 1.5117 2.2656 3.5312 2.2656 6.0625zm-5.2344-1.7031c0-0.96875-0.28906-1.75-0.85938-2.3438-0.5625-0.59375-1.2969-0.89062-2.2031-0.89062-0.99219 0-1.7969 0.28125-2.4219 0.84375-0.61719 0.55469-0.99609 1.3516-1.1406 2.3906z"/>
  </symbol>
  <symbol id="b" overflow="visible">
   <path d="m9.5938-7.1719c-1.0625 0-1.8672 0.18359-2.4062 0.54688-0.53125 0.35547-0.79688 0.88281-0.79688 1.5781 0 0.64844 0.21094 1.1523 0.64062 1.5156 0.4375 0.36719 1.0391 0.54688 1.8125 0.54688 0.95703 0 1.7656-0.34375 2.4219-1.0312s0.98438-1.5469 0.98438-2.5781v-0.57812zm7.7969-1.9375v9.1094h-5.1406v-2.3594c-0.6875 0.96875-1.4609 1.6719-2.3125 2.1094-0.85547 0.4375-1.8906 0.65625-3.1094 0.65625-1.6562 0-3-0.47656-4.0312-1.4375-1.0312-0.96875-1.5469-2.2188-1.5469-3.75 0-1.875 0.64062-3.25 1.9219-4.125 1.2891-0.875 3.3164-1.3125 6.0781-1.3125h3v-0.39062c0-0.8125-0.32031-1.4062-0.95312-1.7812-0.63672-0.375-1.6328-0.5625-2.9844-0.5625-1.0859 0-2.1016 0.10938-3.0469 0.32812-0.9375 0.21875-1.8086 0.54688-2.6094 0.98438v-3.8906c1.082-0.25781 2.1758-0.45703 3.2812-0.59375 1.1016-0.14453 2.207-0.21875 3.3125-0.21875 2.875 0 4.9453 0.57031 6.2188 1.7031 1.2812 1.1367 1.9219 2.9805 1.9219 5.5312z"/>
  </symbol>
  <symbol id="a" overflow="visible">
   <path d="m8.0156-20.484v4.5312h5.2656v3.6406h-5.2656v6.7656c0 0.74219 0.14453 1.2461 0.4375 1.5156 0.30078 0.26172 0.89062 0.39062 1.7656 0.39062h2.6094v3.6406h-4.3594c-2.0234 0-3.4531-0.41406-4.2969-1.25-0.83594-0.84375-1.25-2.2734-1.25-4.2969v-6.7656h-2.5312v-3.6406h2.5312v-4.5312z"/>
  </symbol>
  <symbol id="l" overflow="visible">
   <path d="m13.297-13.625v-8.5312h5.1406v22.156h-5.1406v-2.3125c-0.69922 0.94922-1.4688 1.6406-2.3125 2.0781-0.84375 0.42578-1.8242 0.64062-2.9375 0.64062-1.9688 0-3.5859-0.77344-4.8438-2.3281-1.2617-1.5625-1.8906-3.5781-1.8906-6.0469 0-2.457 0.62891-4.4688 1.8906-6.0312 1.2578-1.5625 2.875-2.3438 4.8438-2.3438 1.1016 0 2.0781 0.22656 2.9219 0.67188 0.85156 0.4375 1.6289 1.1211 2.3281 2.0469zm-3.3594 10.328c1.0938 0 1.9258-0.39453 2.5-1.1875 0.57031-0.80078 0.85938-1.9609 0.85938-3.4844 0-1.5078-0.28906-2.6641-0.85938-3.4688-0.57422-0.80078-1.4062-1.2031-2.5-1.2031-1.0859 0-1.9141 0.40234-2.4844 1.2031-0.57422 0.80469-0.85938 1.9609-0.85938 3.4688 0 1.5234 0.28516 2.6836 0.85938 3.4844 0.57031 0.79297 1.3984 1.1875 2.4844 1.1875z"/>
  </symbol>
  <symbol id="k" overflow="visible">
   <path d="m10.938-3.2969c1.0938 0 1.9258-0.39453 2.5-1.1875 0.57031-0.80078 0.85938-1.9609 0.85938-3.4844 0-1.5078-0.28906-2.6641-0.85938-3.4688-0.57422-0.80078-1.4062-1.2031-2.5-1.2031s-1.9336 0.40234-2.5156 1.2031c-0.58594 0.80469-0.875 1.9609-0.875 3.4688 0 1.5117 0.28906 2.668 0.875 3.4688 0.58203 0.80469 1.4219 1.2031 2.5156 1.2031zm-3.3906-10.328c0.70703-0.92578 1.4883-1.6094 2.3438-2.0469 0.85156-0.44531 1.832-0.67188 2.9375-0.67188 1.9688 0 3.582 0.78125 4.8438 2.3438 1.2695 1.5625 1.9062 3.5742 1.9062 6.0312 0 2.4688-0.63672 4.4844-1.9062 6.0469-1.2617 1.5547-2.875 2.3281-4.8438 2.3281-1.1055 0-2.0859-0.21875-2.9375-0.65625-0.85547-0.4375-1.6367-1.125-2.3438-2.0625v2.3125h-5.0938v-22.156h5.0938z"/>
  </symbol>
  <symbol id="j" overflow="visible">
   <path d="m0.35938-15.953h5.0938l4.2969 10.828 3.6406-10.828h5.0938l-6.7031 17.469c-0.67969 1.7695-1.4648 3.0078-2.3594 3.7188-0.89844 0.70703-2.0781 1.0625-3.5469 1.0625h-2.9531v-3.3438h1.5938c0.86328 0 1.4922-0.14062 1.8906-0.42188 0.39453-0.27344 0.70312-0.76562 0.92188-1.4844l0.14062-0.4375z"/>
  </symbol>
  <symbol id="h" overflow="visible">
   <path d="m2.6719-21.266h6.125l7.7344 14.578v-14.578h5.2031v21.266h-6.125l-7.7344-14.594v14.594h-5.2031z"/>
  </symbol>
  <symbol id="i" overflow="visible">
   <path d="m2.4531-15.953h5.0938v15.953h-5.0938zm0-6.2031h5.0938v4.1562h-5.0938z"/>
  </symbol>
  <symbol id="g" overflow="visible">
   <path d="m18.484-9.7188v9.7188h-5.125v-7.4062c0-1.3945-0.03125-2.3516-0.09375-2.875-0.0625-0.51953-0.16797-0.90625-0.3125-1.1562-0.19922-0.33203-0.46875-0.58594-0.8125-0.76562-0.34375-0.1875-0.73438-0.28125-1.1719-0.28125-1.0625 0-1.9023 0.41406-2.5156 1.2344-0.60547 0.8125-0.90625 1.9492-0.90625 3.4062v7.8438h-5.0938v-22.156h5.0938v8.5312c0.76953-0.92578 1.5859-1.6094 2.4531-2.0469 0.86328-0.44531 1.8164-0.67188 2.8594-0.67188 1.8438 0 3.2383 0.57031 4.1875 1.7031 0.95703 1.125 1.4375 2.7656 1.4375 4.9219z"/>
  </symbol>
  <symbol id="f" overflow="visible">
   <path d="m18.484-9.7188v9.7188h-5.125v-7.4375c0-1.375-0.03125-2.3203-0.09375-2.8438-0.0625-0.51953-0.16797-0.90625-0.3125-1.1562-0.19922-0.33203-0.46875-0.58594-0.8125-0.76562-0.34375-0.1875-0.73438-0.28125-1.1719-0.28125-1.0625 0-1.9023 0.41406-2.5156 1.2344-0.60547 0.8125-0.90625 1.9492-0.90625 3.4062v7.8438h-5.0938v-15.953h5.0938v2.3281c0.76953-0.92578 1.5859-1.6094 2.4531-2.0469 0.86328-0.44531 1.8164-0.67188 2.8594-0.67188 1.8438 0 3.2383 0.57031 4.1875 1.7031 0.95703 1.125 1.4375 2.7656 1.4375 4.9219z"/>
  </symbol>
  <symbol id="s" overflow="visible">
   <path d="m0.14062-21.266h19.609v4.1406h-7.0625v17.125h-5.4844v-17.125h-7.0625z"/>
  </symbol>
  <symbol id="r" overflow="visible">
   <path d="m12.953-22.156v3.3438h-2.8281c-0.71875 0-1.2266 0.13281-1.5156 0.39062-0.28125 0.26172-0.42188 0.71484-0.42188 1.3594v1.1094h4.3594v3.6406h-4.3594v12.312h-5.0938v-12.312h-2.5312v-3.6406h2.5312v-1.1094c0-1.7383 0.48438-3.0195 1.4531-3.8438 0.96875-0.83203 2.4688-1.25 4.5-1.25z"/>
  </symbol>
  <symbol id="e" overflow="visible">
   <path d="m10.047-12.688c-1.1367 0-2 0.40625-2.5938 1.2188s-0.89062 1.9805-0.89062 3.5c0 1.5312 0.29688 2.7031 0.89062 3.5156s1.457 1.2188 2.5938 1.2188c1.1016 0 1.9453-0.40625 2.5312-1.2188 0.59375-0.8125 0.89062-1.9844 0.89062-3.5156 0-1.5195-0.29688-2.6875-0.89062-3.5-0.58594-0.8125-1.4297-1.2188-2.5312-1.2188zm0-3.6562c2.7383 0 4.8789 0.74609 6.4219 2.2344 1.5391 1.4805 2.3125 3.5273 2.3125 6.1406 0 2.625-0.77344 4.6797-2.3125 6.1562-1.543 1.4805-3.6836 2.2188-6.4219 2.2188-2.7617 0-4.918-0.73828-6.4688-2.2188-1.5547-1.4766-2.3281-3.5312-2.3281-6.1562 0-2.6133 0.77344-4.6602 2.3281-6.1406 1.5508-1.4883 3.707-2.2344 6.4688-2.2344z"/>
  </symbol>
  <symbol id="q" overflow="visible">
   <path d="m17.234-13.297c0.64453-0.98828 1.4102-1.7422 2.2969-2.2656 0.89453-0.51953 1.875-0.78125 2.9375-0.78125 1.832 0 3.2266 0.57031 4.1875 1.7031 0.95703 1.125 1.4375 2.7656 1.4375 4.9219v9.7188h-5.125v-8.3125-0.39062c0.007812-0.13281 0.015625-0.32031 0.015625-0.5625 0-1.1328-0.16797-1.9531-0.5-2.4531-0.32422-0.50781-0.85938-0.76562-1.6094-0.76562-0.96875 0-1.7188 0.40234-2.25 1.2031-0.52344 0.79297-0.79297 1.9453-0.8125 3.4531v7.8281h-5.125v-8.3125c0-1.7695-0.15234-2.9062-0.45312-3.4062-0.30469-0.50781-0.84375-0.76562-1.625-0.76562-0.98047 0-1.7344 0.40234-2.2656 1.2031-0.53125 0.80469-0.79688 1.9492-0.79688 3.4375v7.8438h-5.125v-15.953h5.125v2.3281c0.625-0.89453 1.3438-1.5703 2.1562-2.0312 0.8125-0.45703 1.707-0.6875 2.6875-0.6875 1.1016 0 2.0781 0.26562 2.9219 0.79688s1.4844 1.2812 1.9219 2.25z"/>
  </symbol>
  <symbol id="p" overflow="visible">
   <path d="m2.2812-6.2031v-9.75h5.125v1.5938c0 0.86719-0.007812 1.9531-0.015625 3.2656-0.011719 1.3047-0.015625 2.1719-0.015625 2.6094 0 1.2812 0.03125 2.2031 0.09375 2.7656 0.070312 0.5625 0.1875 0.97656 0.34375 1.2344 0.21875 0.33594 0.49219 0.58984 0.82812 0.76562 0.33203 0.17969 0.71875 0.26562 1.1562 0.26562 1.0625 0 1.8945-0.40625 2.5-1.2188 0.61328-0.8125 0.92188-1.9453 0.92188-3.4062v-7.875h5.0938v15.953h-5.0938v-2.3125c-0.77344 0.9375-1.5898 1.625-2.4531 2.0625-0.85547 0.4375-1.7969 0.65625-2.8281 0.65625-1.8438 0-3.25-0.5625-4.2188-1.6875-0.96094-1.1328-1.4375-2.7734-1.4375-4.9219z"/>
  </symbol>
  <symbol id="o" overflow="visible">
   <path d="m2.6719-21.266h9.1094c2.707 0 4.7852 0.60547 6.2344 1.8125 1.4453 1.1992 2.1719 2.9062 2.1719 5.125 0 2.2305-0.72656 3.9492-2.1719 5.1562-1.4492 1.1992-3.5273 1.7969-6.2344 1.7969h-3.625v7.375h-5.4844zm5.4844 3.9688v5.9375h3.0469c1.0625 0 1.8789-0.25391 2.4531-0.76562 0.58203-0.51953 0.875-1.2539 0.875-2.2031 0-0.94531-0.29297-1.6758-0.875-2.1875-0.57422-0.51953-1.3906-0.78125-2.4531-0.78125z"/>
  </symbol>
  <symbol id="n" overflow="visible">
   <path d="m2.4531-15.953h5.0938v15.672c0 2.1328-0.51562 3.7656-1.5469 4.8906-1.0234 1.125-2.5078 1.6875-4.4531 1.6875h-2.5156v-3.3438h0.89062c0.96875 0 1.6289-0.21875 1.9844-0.65625 0.36328-0.4375 0.54688-1.2969 0.54688-2.5781zm0-6.2031h5.0938v4.1562h-5.0938z"/>
  </symbol>
  <symbol id="m" overflow="visible">
   <path d="m15.344-15.453v4.1562c-0.69922-0.46875-1.3984-0.81641-2.0938-1.0469-0.69922-0.22656-1.4219-0.34375-2.1719-0.34375-1.4297 0-2.5391 0.41797-3.3281 1.25-0.79297 0.82422-1.1875 1.9805-1.1875 3.4688 0 1.5 0.39453 2.668 1.1875 3.5 0.78906 0.82422 1.8984 1.2344 3.3281 1.2344 0.80078 0 1.5547-0.11719 2.2656-0.35938 0.71875-0.23828 1.3828-0.58594 2-1.0469v4.1719c-0.80469 0.29297-1.6172 0.50781-2.4375 0.65625-0.8125 0.14453-1.6367 0.21875-2.4688 0.21875-2.875 0-5.125-0.73438-6.75-2.2031-1.625-1.4766-2.4375-3.5352-2.4375-6.1719 0-2.625 0.8125-4.6758 2.4375-6.1562 1.625-1.4766 3.875-2.2188 6.75-2.2188 0.83203 0 1.6562 0.078125 2.4688 0.23438 0.8125 0.14844 1.625 0.36719 2.4375 0.65625z"/>
  </symbol>
 </defs>
 <g>
  <path d="m345.79 219.86c1.0977 1.1562 2.6211 1.8086 4.2148 1.8086s3.1172-0.65234 4.2148-1.8086l85.074-89.027v0.003907c10.062-10.746 15.664-24.918 15.664-39.641 0-14.723-5.6016-28.895-15.664-39.641-9.9141-10.562-23.758-16.555-38.246-16.555-14.484 0-28.328 5.9922-38.242 16.555l-12.801 13.391-12.801-13.395v0.003907c-9.9141-10.562-23.758-16.555-38.242-16.555-14.488 0-28.332 5.9922-38.246 16.555-10.062 10.746-15.664 24.918-15.664 39.641 0 14.723 5.6016 28.895 15.664 39.641zm-76.645-160.25c7.7188-8.2578 18.516-12.941 29.816-12.941s22.094 4.6836 29.812 12.941l17.016 17.809c2.332 2.3125 6.0977 2.3125 8.4297 0l17.016-17.809c7.7188-8.2578 18.512-12.941 29.812-12.941 11.305 0 22.098 4.6836 29.816 12.941 8.0156 8.5625 12.473 19.855 12.473 31.586 0 11.73-4.457 23.02-12.473 31.582l-80.859 84.613-80.859-84.613c-8.0156-8.5625-12.473-19.852-12.473-31.582 0-11.73 4.457-23.023 12.473-31.586z"/>
  <path d="m349.7 169.16 0.003906-0.050781c0.09375 0.003906 0.17188 0.058594 0.26562 0.058594h0.03125c0.082031 0 0.15625-0.046875 0.23828-0.050781v0.042968c35.25-1.4414 50.391-16.566 52.254-52.191h0.003906c0.082031-1.6406-0.52734-3.2383-1.6836-4.4023-1.1328-1.1953-2.7383-1.8281-4.3867-1.7266-8.6406 0.13281-17.203 1.7266-25.316 4.707-3.8086-9.7305-9.5117-18.605-16.773-26.117-1.1016-1.2188-2.6602-1.918-4.3008-1.9297h-0.035156c-1.6289 0-3.1836 0.68359-4.2891 1.8789-7.4062 7.4609-13.18 16.383-16.953 26.195-8.0664-2.9219-16.547-4.5195-25.121-4.7344-1.6406-0.085938-3.2383 0.52734-4.4062 1.6797-1.1641 1.1562-1.793 2.7461-1.7266 4.3867 1.4414 35.25 16.566 50.391 52.195 52.254zm40.621-46.195c-2.1953 20.16-9.6055 29.617-26.902 33.059 6.4141-8.207 9.9141-18.316 9.9492-28.734 5.3672-2.3906 11.098-3.8516 16.953-4.3203zm-40.367-20.73c15.707 19.367 15.734 33.25 0.089844 52.191-15.703-19.363-15.73-33.246-0.089844-52.188zm-23.355 25.141c0.21094 10.34 3.7344 20.34 10.047 28.531-17.598-3.5781-25.039-12.965-27.035-32.887 5.8672 0.50391 11.605 1.9766 16.988 4.3555z"/>
  <path d="m303.33 233.33h93.332v11.668h-93.332z"/>
  <path d="m175 268.33h163.33v11.668h-163.33z"/>
  <path d="m350 268.33h175v11.668h-175z"/>
  <path d="m198.33 309.17h140v11.668h-140z"/>
  <path d="m221.67 350h116.67v11.668h-116.67z"/>
  <path d="m350 350.52h46.668v11.668h-46.668z"/>
  <path d="m350 309.17h81.668v11.668h-81.668z"/>
  <path d="m408.33 449.17h11.668v17.5h-11.668z"/>
  <path d="m367.5 449.17h11.668v17.5h-11.668z"/>
  <path d="m449.17 449.17h11.668v17.5h-11.668z"/>
  <path d="m578.52 338.28c2.9883-2.043 5.1289-5.1016 6.0312-8.6016 0.90234-3.5039 0.50391-7.2188-1.1211-10.449-0.83594-1.6758-0.16016-3.7109 1.5156-4.5508l4.4883-2.2461 13.531 13.531 8.25-8.25-13.996-13.996h-0.003906c-0.82031-0.81641-1.375-1.8594-1.6016-2.9961l-3.4336-17.152-11.438 2.2891 3.2539 16.25-4.2695 2.1328c-3.5703 1.793-6.2812 4.9219-7.5469 8.7109-1.2617 3.7891-0.96875 7.9219 0.8125 11.496 0.40234 0.80469 0.47266 1.7344 0.1875 2.5859-0.28516 0.85547-0.89844 1.5586-1.7031 1.9609l-2.8711 1.4375c-2.7773-1.9531-5.6523-3.7656-8.6016-5.4766v-307.45c0-1.5469-0.61328-3.0312-1.707-4.125s-2.5781-1.7109-4.125-1.707h-408.34c-1.5469-0.003907-3.0312 0.61328-4.125 1.707s-1.707 2.5781-1.707 4.125v298.6l-5.832-8.7422v-33.191h-11.668v15.715l-12.648-18.953-9.7031 6.4727 13.926 20.859-18.891-6.293-3.6914 11.062 33.141 11.047 6.3438 9.5-5.4453 3.3516h-0.007812c-8.8945 5.4766-15.035 14.488-16.883 24.77-1.8438 10.285 0.78516 20.867 7.2227 29.098l24.137 30.84v113.36c0 1.5469 0.61328 3.0312 1.707 4.125s2.5781 1.7109 4.125 1.707h73.516c10.418 11.453 23.703 19.246 37.543 17.148 2.3281-0.36328 4.6289-0.89453 6.8789-1.5898 2.9766-0.89844 6.1523-0.89844 9.125 0 2.2578 0.69922 4.5625 1.2305 6.8945 1.5898 1.5234 0.23438 3.0625 0.35547 4.6016 0.35156 12.938-0.99219 24.875-7.3359 32.938-17.5h35.566c33.922 21.102 76.312 23.262 112.2 5.7188 34.305 11.398 71.961 6.2227 101.92-14.008 29.965-20.23 48.836-53.223 51.086-89.305 2.2539-36.082-12.375-71.164-39.59-94.961zm-60.641 46.645c3.2578 7.5195 4.9492 12.09 1.8672 18.566v-0.003906c-1.8789 4.9648-6.1133 8.6602-11.285 9.8516-6.8008 1.8789-12.582 6.3711-16.09 12.496h-59.742c3.4141-1.957 7.0742-3.4609 10.879-4.4688 10.785-1.9961 20.047-8.8594 25.094-18.598 5.043-9.7422 5.3086-21.266 0.71875-31.227-3.3906-7.0117-3.4219-15.184-0.082031-22.223 4.2383-8.4766 10.438-10.43 18.273-12.898h0.003907c9.3008-1.9922 17.52-7.3906 23.043-15.133 14.621 1.2109 28.82 5.4961 41.672 12.574-3.6328 3.3711-8.1836 5.5898-13.078 6.3711-9.9805 1.1719-18.66 7.3945-22.98 16.469-4.3203 9.0742-3.6758 19.734 1.707 28.223zm-179.65 95.711c-0.42969-8.6758-3.3555-17.043-8.4297-24.09-5.0742-7.0508-12.078-12.484-20.168-15.648-0.097656-1.1328-0.23438-2.2734-0.29297-3.3945h205.61c-6.8281 23.773-21.852 44.367-42.406 58.125-20.555 13.762-45.316 19.805-69.898 17.062-24.586-2.7461-47.402-14.098-64.418-32.055zm119.98-105.54c3.3906 7.0156 3.418 15.191 0.074219 22.227-4.2383 8.4805-10.438 10.438-18.281 12.91-9.4805 2.0352-17.82 7.6172-23.316 15.602h-20.012c0.042969-26.543 10.133-52.09 28.242-71.5 18.109-19.406 42.895-31.242 69.371-33.125-3.2578 1.7461-6.707 3.1172-10.273 4.082-10.785 1.9883-20.047 8.8477-25.094 18.586-5.0469 9.7383-5.3086 21.262-0.71094 31.219zm90.129-351.76v295.64c-36.055-15.809-77.652-12.348-110.6 9.207-32.941 21.551-52.777 58.281-52.734 97.648h-81.668c-1.5469 0-3.0312 0.61328-4.125 1.707-1.0938 1.0977-1.707 2.582-1.707 4.1289 0 2.0664 0.078125 4.1719 0.19141 6.2891v-0.003906c-8.4258-0.96484-16.957 0.23047-24.793 3.4688-0.43359-3.5156-1.0547-6.875-1.7812-10.18 1.9609-0.30469 3.8945-0.75391 5.7891-1.3398 14.309-4.3359 22.93-14.805 20.051-24.363v-0.003906c-1.1484-3.5938-3.7109-6.5625-7.0977-8.2305-7.293-3.2266-15.543-3.5391-23.059-0.86719-2.4844 0.75-4.8828 1.7461-7.1641 2.9727-1.1914-2.5273-2.4609-5.1328-3.8125-7.8477l-10.449 5.1953c7.5391 13.527 12.793 28.207 15.547 43.445-3.9375-1.2852-8.0195-2.082-12.148-2.3711l-53.48-106.96c-3.8789-7.7773-10.395-13.922-18.391-17.332-7.9922-3.4102-16.938-3.8633-25.234-1.2773v-288.93zm-283.97 386.82c1.8281-1.0742 3.7773-1.9297 5.8047-2.543 4.5742-1.7539 9.6367-1.7578 14.211-0.003906 0.36328 0.19531 1.2305 0.70703 1.4062 1.3008 0.58203 1.9258-3.7422 7.25-12.301 9.8438l0.003906-0.003906c-1.7852 0.55078-3.625 0.91406-5.4883 1.0859-1.0547-3.1758-2.2852-6.3984-3.6367-9.6797zm-144.25-56.387c1.2656-7.0156 5.457-13.16 11.527-16.902l17.711-10.898c5.9766-3.6758 13.227-4.6758 19.977-2.75 6.75 1.9258 12.383 6.5977 15.523 12.875l17.512 35.023-24.535 14.723 6.0039 10.004 23.766-14.258 28.387 56.773-0.003906-0.007813c-8.2734 1.4219-15.988 5.1133-22.285 10.664-6.3008 5.5508-10.934 12.738-13.391 20.766l-20.41-26.082 21.438-12.863-6.0039-10.004-22.676 13.605-34.016-43.465 27.93-18.617-6.4727-9.7031-28.672 19.113-6.3828-8.1523 0.003906-0.003906c-4.3867-5.6133-6.1797-12.828-4.9297-19.84zm31.551 165.4v-92.621l46.824 59.828c0.13672 2.3047 0.4375 4.5938 0.90234 6.8555 2.1641 9.2227 5.9141 18 11.086 25.938zm129.91 17.285v-0.003906c-1.7656-0.27344-3.5117-0.67188-5.2188-1.1992-5.2305-1.6133-10.824-1.6133-16.055 0-1.7031 0.52344-3.4414 0.92578-5.2031 1.1992-19.484 3.0078-39.945-25.191-44.293-45.648v0.003907c-2.1328-9.2617-0.28516-18.996 5.1016-26.828 5.3828-7.8359 13.805-13.051 23.215-14.375 9.0938-1.3242 18.355 0.60938 26.16 5.457 1.8672 1.1484 4.2266 1.1484 6.0938 0 7.8047-4.8477 17.07-6.7812 26.16-5.457 9.4141 1.3242 17.836 6.5391 23.219 14.375 5.3828 7.832 7.2344 17.566 5.1016 26.828-4.3555 20.461-25.066 48.586-44.281 45.645zm44.613-17.285c1.3984-2.1992 2.7148-4.4375 3.9023-6.707 0.53516 0.55469 1.043 1.1094 1.6016 1.668 1.7773 1.7812 3.6758 3.3906 5.543 5.043zm87.977 17.5c-27.867 0.085937-54.602-11.008-74.223-30.793-1.7344-1.7344-3.2969-3.4336-4.8047-5.1445 0.60547-1.7734 1.125-3.5234 1.5586-5.2422h0.003906c24.957 22.266 58.293 32.707 91.492 28.656 33.199-4.0508 63.051-22.199 81.922-49.809-8.2734 18.539-21.734 34.289-38.762 45.348-17.023 11.059-36.887 16.957-57.188 16.984zm65.16-8.3086c32.266-21.582 51.598-57.875 51.504-96.691 0.003907-1.5469-0.61328-3.0312-1.707-4.1289-1.0938-1.0938-2.5781-1.707-4.125-1.707h-16.398c1.2344-0.56641 2.4961-1.0703 3.7812-1.5078 8.0859-2.2305 14.691-8.0703 17.891-15.824 3.9805-9.1406 3.3516-19.629-1.6953-28.223-3.2656-7.5195-4.957-12.09-1.875-18.57 3.0859-6.4727 7.7031-8.0312 15.586-10.238 7.7031-1.4141 14.691-5.4219 19.801-11.363 16.887 11.938 29.891 28.574 37.391 47.844-2.6328 1.0664-5.3633 1.8867-8.1484 2.4453-7.707 1.7891-17.293 4.0234-22.582 14.992-5.2969 10.977-1.0781 19.863 2.3125 27 3.332 7.0117 5.0859 11.258 2.3516 16.926-2.7383 5.668-7.1602 6.9375-14.738 8.6914-7.707 1.7891-17.301 4.0156-22.598 14.988v0.003906c-3.7891 9.7617-4.793 20.387-2.8867 30.688 1.2852 7.5117 0.95703 15.211-0.96875 22.582-17.152 5.2734-35.379 5.9922-52.895 2.0938zm65.918-7.1172c0.47266-6.207 0.32812-12.441-0.43359-18.617-1.5898-8.1992-0.97656-16.676 1.7734-24.559 2.7344-5.6641 7.1562-6.9336 14.73-8.6914 7.707-1.7812 17.305-4.0117 22.605-14.988 5.2969-10.973 1.0781-19.859-2.3203-27-3.332-7.0117-5.082-11.258-2.3398-16.93 2.7305-5.6641 7.1445-6.9336 14.715-8.6914v-0.007813c3.0977-0.66016 6.1406-1.5547 9.1055-2.6758 6.4375 23.914 4.1562 49.34-6.4414 71.723-10.598 22.383-28.816 40.262-51.395 50.438z"/>
  <use x="70" y="647.5" xlink:href="#t"/>
  <use x="91.40625" y="647.5" xlink:href="#d"/>
  <use x="105.789062" y="647.5" xlink:href="#c"/>
  <use x="125.570312" y="647.5" xlink:href="#b"/>
  <use x="145.253906" y="647.5" xlink:href="#a"/>
  <use x="159.195312" y="647.5" xlink:href="#c"/>
  <use x="178.976562" y="647.5" xlink:href="#l"/>
  <use x="210.007812" y="647.5" xlink:href="#k"/>
  <use x="230.886719" y="647.5" xlink:href="#j"/>
  <use x="260.054688" y="647.5" xlink:href="#h"/>
  <use x="284.464844" y="647.5" xlink:href="#i"/>
  <use x="294.460938" y="647.5" xlink:href="#a"/>
  <use x="308.402344" y="647.5" xlink:href="#g"/>
  <use x="329.167969" y="647.5" xlink:href="#i"/>
  <use x="339.164062" y="647.5" xlink:href="#f"/>
  <use x="359.929688" y="647.5" xlink:href="#b"/>
  <use x="379.609375" y="647.5" xlink:href="#f"/>
  <use x="410.53125" y="647.5" xlink:href="#s"/>
  <use x="430.425781" y="647.5" xlink:href="#b"/>
  <use x="450.105469" y="647.5" xlink:href="#a"/>
  <use x="464.050781" y="647.5" xlink:href="#b"/>
  <use x="483.730469" y="647.5" xlink:href="#g"/>
  <use x="70" y="676.667969" xlink:href="#r"/>
  <use x="82.6875" y="676.667969" xlink:href="#d"/>
  <use x="97.074219" y="676.667969" xlink:href="#e"/>
  <use x="117.109375" y="676.667969" xlink:href="#q"/>
  <use x="157.65625" y="676.667969" xlink:href="#a"/>
  <use x="171.597656" y="676.667969" xlink:href="#g"/>
  <use x="192.363281" y="676.667969" xlink:href="#c"/>
  <use x="222.300781" y="676.667969" xlink:href="#h"/>
  <use x="246.710938" y="676.667969" xlink:href="#e"/>
  <use x="266.746094" y="676.667969" xlink:href="#p"/>
  <use x="287.511719" y="676.667969" xlink:href="#f"/>
  <use x="318.429688" y="676.667969" xlink:href="#o"/>
  <use x="339.804688" y="676.667969" xlink:href="#d"/>
  <use x="354.191406" y="676.667969" xlink:href="#e"/>
  <use x="374.226562" y="676.667969" xlink:href="#n"/>
  <use x="384.226562" y="676.667969" xlink:href="#c"/>
  <use x="404.007812" y="676.667969" xlink:href="#m"/>
  <use x="421.296875" y="676.667969" xlink:href="#a"/>
 </g>
</svg>
