<svg xmlns="http://www.w3.org/2000/svg" width="72" height="72" viewBox="0 0 72 72">
  <g id="noun-recipe-1939811" transform="translate(-87.5 -65.797)">
    <rect id="BG" width="72" height="72" transform="translate(87.5 65.797)" fill="none"/>
    <path id="Path_1640" data-name="Path 1640" d="M158.3,70h-30a6,6,0,0,0-4.8,2.4,6,6,0,0,0-4.8-2.4h-30a1.2,1.2,0,0,0-1.2,1.2v49.2a1.2,1.2,0,0,0,1.2,1.2h40.8v4.8a1.185,1.185,0,0,0,1.836,1l2.964-1.956,2.94,1.956a1.2,1.2,0,0,0,1.86-1v-4.8h19.2a1.2,1.2,0,0,0,1.2-1.2V71.2a1.2,1.2,0,0,0-1.2-1.2ZM89.9,119.2v-2.4h28.8a3.6,3.6,0,0,1,3.384,2.4Zm32.4-3.6a6,6,0,0,0-3.6-1.2H89.9v-42h28.8a3.6,3.6,0,0,1,3.6,3.6Zm7.2,3.6h-4.584a3.6,3.6,0,0,1,3.384-2.4h1.2Zm7.2,4.956-1.74-1.2a1.2,1.2,0,0,0-1.32,0l-1.74,1.2V116.8h4.8Zm20.4-4.956h-18v-2.4h18Zm0-4.8h-5.508l5.508-5.508Zm-7.2-1.692V107.2h5.508Zm7.2-7.908h-8.4a1.2,1.2,0,0,0-1.2,1.2v8.4H128.3a6,6,0,0,0-3.6,1.2V76a3.6,3.6,0,0,1,3.6-3.6h28.8Z" transform="translate(0 3)" fill="#414057"/>
    <path id="Path_1641" data-name="Path 1641" d="M148.864,113.75H123.7a1.2,1.2,0,0,0-1.2,1.2V148.5a1.2,1.2,0,0,0,1.2,1.2h25.165a1.2,1.2,0,0,0,1.2-1.2V114.948a1.2,1.2,0,0,0-1.2-1.2Zm-1.2,33.554H124.9V142.51h22.769Zm0-7.19h-14.38a3.594,3.594,0,0,1-3.391-2.4h17.771Zm-15.579-4.793a2.4,2.4,0,0,1,2.4-2.4,1.2,1.2,0,0,0,1.2-1.2,2.4,2.4,0,0,1,2.4-2.4h3.6a2.4,2.4,0,0,1,2.4,2.4,1.2,1.2,0,0,0,1.2,1.2,2.4,2.4,0,0,1,2.4,2.4Zm15.579-4.134a4.7,4.7,0,0,0-1.318-.539,4.794,4.794,0,0,0-4.674-3.715h-3.6a4.794,4.794,0,0,0-4.674,3.715,4.794,4.794,0,0,0-3.715,4.674h-1.2a1.2,1.2,0,0,0-1.2,1.2,5.9,5.9,0,0,0,1.2,3.6h-3.6V116.147h22.769Z" transform="translate(-30.207 -34.758)" fill="#414057"/>
    <path id="Path_1642" data-name="Path 1642" d="M376.25,253.75h7.19v2.4h-7.19Z" transform="translate(-249.144 -155.549)" fill="#414057"/>
    <path id="Path_1643" data-name="Path 1643" d="M376.25,148.75h5.992v2.4H376.25Z" transform="translate(-249.145 -64.949)" fill="#414057"/>
    <path id="Path_1644" data-name="Path 1644" d="M376.25,218.75h5.992v2.4H376.25Z" transform="translate(-249.145 -125.349)" fill="#414057"/>
    <path id="Path_1645" data-name="Path 1645" d="M376.25,183.75h8.388v2.4H376.25Z" transform="translate(-249.143 -95.149)" fill="#414057"/>
    <path id="Path_1646" data-name="Path 1646" d="M376.25,113.75h10.785v2.4H376.25Z" transform="translate(-249.14 -34.758)" fill="#414057"/>
    <path id="Path_1647" data-name="Path 1647" d="M542.5,148.75h3.6v2.4h-3.6Z" transform="translate(-392.587 -64.949)" fill="#414057"/>
    <path id="Path_1648" data-name="Path 1648" d="M542.5,183.75h3.6v2.4h-3.6Z" transform="translate(-392.587 -95.149)" fill="#414057"/>
    <path id="Path_1649" data-name="Path 1649" d="M542.5,218.75h3.6v2.4h-3.6Z" transform="translate(-392.587 -125.349)" fill="#414057"/>
    <path id="Path_1650" data-name="Path 1650" d="M542.5,253.75h3.6v2.4h-3.6Z" transform="translate(-392.587 -155.549)" fill="#414057"/>
    <path id="Path_1651" data-name="Path 1651" d="M376.25,323.75h7.19v2.4h-7.19Z" transform="translate(-249.144 -215.948)" fill="#414057"/>
    <path id="Path_1652" data-name="Path 1652" d="M376.25,288.75h5.992v2.4H376.25Z" transform="translate(-249.145 -185.748)" fill="#414057"/>
    <path id="Path_1653" data-name="Path 1653" d="M542.5,288.75h3.6v2.4h-3.6Z" transform="translate(-392.587 -185.748)" fill="#414057"/>
    <path id="Path_1654" data-name="Path 1654" d="M157.5,148.75h7.19v2.4H157.5Z" transform="translate(-60.413 -64.949)" fill="#414057"/>
    <path id="Path_1655" data-name="Path 1655" d="M157.5,183.75h4.793v2.4H157.5Z" transform="translate(-60.413 -95.149)" fill="#414057"/>
    <path id="Path_1656" data-name="Path 1656" d="M157.5,218.75h3.6v2.4h-3.6Z" transform="translate(-60.413 -125.349)" fill="#414057"/>
    <path id="Path_1657" data-name="Path 1657" d="M376.25,358.75h17.975v2.4H376.25Z" transform="translate(-249.132 -246.148)" fill="#414057"/>
    <path id="Path_1658" data-name="Path 1658" d="M446.25,323.75h8.388v2.4H446.25Z" transform="translate(-309.541 -215.948)" fill="#414057"/>
  </g>
</svg>
