<svg xmlns="http://www.w3.org/2000/svg" width="72" height="72" viewBox="0 0 72 72">
  <g id="Group_459" data-name="Group 459" transform="translate(-566 -1106)">
    <rect id="Rectangle_469" data-name="Rectangle 469" width="72" height="72" transform="translate(566 1106)" fill="none"/>
    <g id="Ellipse_99" data-name="Ellipse 99" transform="translate(566 1106)" fill="none" stroke="#414057" stroke-width="3">
      <circle cx="36" cy="36" r="36" stroke="none"/>
      <circle cx="36" cy="36" r="34.5" fill="none"/>
    </g>
    <path id="Path_1682" data-name="Path 1682" d="M18.84.4a23.221,23.221,0,0,1,9.2,1.68,13.775,13.775,0,0,1,6.08,4.8,12.418,12.418,0,0,1,2.24,7.44,13.689,13.689,0,0,1-2.08,7.76,12.843,12.843,0,0,1-5.44,4.64,23.685,23.685,0,0,1-7.52,2.08v8.56H14.68v-12a42.441,42.441,0,0,0,9.04-2.16A9.37,9.37,0,0,0,28.28,20a7.957,7.957,0,0,0,1.36-4.72,8.716,8.716,0,0,0-1.28-4.8,7.508,7.508,0,0,0-3.68-3.04A16.469,16.469,0,0,0,18.36,6.4,12.589,12.589,0,0,0,9.72,9.36,12.141,12.141,0,0,0,5.8,17.28L.12,14A16.623,16.623,0,0,1,3.48,6.88a16.905,16.905,0,0,1,6.4-4.8A22.559,22.559,0,0,1,18.84.4Zm-.96,44a5.2,5.2,0,1,1,0,10.4,5.2,5.2,0,1,1,0-10.4Z" transform="translate(583.76 1114.4)" fill="#414057"/>
  </g>
</svg>
