<svg width="161" height="48" viewBox="0 0 161 48" fill="none" xmlns="http://www.w3.org/2000/svg">
<path d="M30.8571 13V20H17.1429V13H30.8571ZM32 12H16V21H32V12Z" fill="#1C9287"/>
<path d="M30 25.4286V32.5714H26V25.4286H30ZM31 24H25V34H31V24Z" fill="#1C9287"/>
<path d="M30.5 12.5L17.5 20.5" stroke="#1C9287" stroke-miterlimit="10"/>
<path d="M17.5 12.5L30.5 20.5" stroke="#1C9287" stroke-miterlimit="10"/>
<path d="M16 24.5H23" stroke="#1C9287" stroke-miterlimit="10"/>
<path d="M16 27.5H23" stroke="#1C9287" stroke-miterlimit="10"/>
<path d="M16.0001 30.5L23 30.5" stroke="#1C9287" stroke-miterlimit="10"/>
<path d="M16 33.5H23" stroke="#1C9287" stroke-miterlimit="10"/>
<path d="M26 25L30.5 33.5" stroke="#1C9287" stroke-miterlimit="10"/>
<rect x="13" y="9" width="22" height="30" rx="3" stroke="#1C9287" stroke-width="2"/>
<path d="M55.5568 29L52.3295 17.3636H54.1761L56.4432 26.375H56.5511L58.9091 17.3636H60.7386L63.0966 26.3807H63.2045L65.4659 17.3636H67.3182L64.0852 29H62.3182L59.8693 20.2841H59.7784L57.3295 29H55.5568ZM68.7827 29V20.2727H70.4815V29H68.7827ZM69.6406 18.9261C69.3452 18.9261 69.0914 18.8277 68.8793 18.6307C68.6709 18.4299 68.5668 18.1913 68.5668 17.9148C68.5668 17.6345 68.6709 17.3958 68.8793 17.1989C69.0914 16.9981 69.3452 16.8977 69.6406 16.8977C69.9361 16.8977 70.188 16.9981 70.3963 17.1989C70.6084 17.3958 70.7145 17.6345 70.7145 17.9148C70.7145 18.1913 70.6084 18.4299 70.3963 18.6307C70.188 18.8277 69.9361 18.9261 69.6406 18.9261ZM72.767 29V20.2727H74.4091V21.6591H74.5C74.6591 21.1894 74.9394 20.8201 75.3409 20.5511C75.7462 20.2784 76.2045 20.142 76.7159 20.142C76.822 20.142 76.947 20.1458 77.0909 20.1534C77.2386 20.161 77.3542 20.1705 77.4375 20.1818V21.8068C77.3693 21.7879 77.2481 21.767 77.0739 21.7443C76.8996 21.7178 76.7254 21.7045 76.5511 21.7045C76.1496 21.7045 75.7917 21.7898 75.4773 21.9602C75.1667 22.1269 74.9205 22.3598 74.7386 22.6591C74.5568 22.9545 74.4659 23.2917 74.4659 23.6705V29H72.767ZM82.3565 29.1761C81.4967 29.1761 80.7562 28.9924 80.1349 28.625C79.5175 28.2538 79.0402 27.733 78.7031 27.0625C78.3698 26.3883 78.2031 25.5985 78.2031 24.6932C78.2031 23.7992 78.3698 23.0114 78.7031 22.3295C79.0402 21.6477 79.5099 21.1155 80.1122 20.733C80.7183 20.3504 81.4266 20.1591 82.2372 20.1591C82.7296 20.1591 83.2069 20.2405 83.669 20.4034C84.1312 20.5663 84.5459 20.822 84.9134 21.1705C85.2808 21.5189 85.5705 21.9716 85.7827 22.5284C85.9948 23.0814 86.1009 23.7538 86.1009 24.5455V25.1477H79.1634V23.875H84.4361C84.4361 23.428 84.3452 23.0322 84.1634 22.6875C83.9815 22.339 83.7259 22.0644 83.3963 21.8636C83.0705 21.6629 82.688 21.5625 82.2486 21.5625C81.7713 21.5625 81.3546 21.6799 80.9986 21.9148C80.6463 22.1458 80.3736 22.4489 80.1804 22.8239C79.991 23.1951 79.8963 23.5985 79.8963 24.0341V25.0284C79.8963 25.6117 79.9986 26.108 80.2031 26.517C80.4115 26.9261 80.7012 27.2386 81.0724 27.4545C81.4437 27.6667 81.8774 27.7727 82.3736 27.7727C82.6955 27.7727 82.9891 27.7273 83.2543 27.6364C83.5194 27.5417 83.7486 27.4015 83.9418 27.2159C84.1349 27.0303 84.2827 26.8011 84.3849 26.5284L85.9929 26.8182C85.8641 27.2917 85.633 27.7064 85.2997 28.0625C84.9702 28.4148 84.5554 28.6894 84.0554 28.8864C83.5592 29.0795 82.9929 29.1761 82.3565 29.1761ZM92.1392 20.2727V21.6364H87.2074V20.2727H92.1392ZM88.5597 29V19.2614C88.5597 18.7159 88.679 18.2633 88.9176 17.9034C89.1563 17.5398 89.4725 17.2689 89.8665 17.0909C90.2604 16.9091 90.6884 16.8182 91.1506 16.8182C91.4915 16.8182 91.7831 16.8466 92.0256 16.9034C92.268 16.9564 92.4479 17.0057 92.5653 17.0511L92.1676 18.4261C92.0881 18.4034 91.9858 18.3769 91.8608 18.3466C91.7358 18.3125 91.5843 18.2955 91.4062 18.2955C90.9934 18.2955 90.6979 18.3977 90.5199 18.6023C90.3456 18.8068 90.2585 19.1023 90.2585 19.4886V29H88.5597ZM93.892 29V20.2727H95.5341V21.6591H95.625C95.7841 21.1894 96.0644 20.8201 96.4659 20.5511C96.8712 20.2784 97.3295 20.142 97.8409 20.142C97.947 20.142 98.072 20.1458 98.2159 20.1534C98.3636 20.161 98.4792 20.1705 98.5625 20.1818V21.8068C98.4943 21.7879 98.3731 21.767 98.1989 21.7443C98.0246 21.7178 97.8504 21.7045 97.6761 21.7045C97.2746 21.7045 96.9167 21.7898 96.6023 21.9602C96.2917 22.1269 96.0455 22.3598 95.8636 22.6591C95.6818 22.9545 95.5909 23.2917 95.5909 23.6705V29H93.892ZM102.494 29.1932C101.941 29.1932 101.441 29.0909 100.994 28.8864C100.547 28.678 100.193 28.3769 99.9318 27.983C99.6742 27.589 99.5455 27.1061 99.5455 26.5341C99.5455 26.0417 99.6402 25.6364 99.8295 25.3182C100.019 25 100.275 24.7481 100.597 24.5625C100.919 24.3769 101.278 24.2367 101.676 24.142C102.074 24.0473 102.479 23.9754 102.892 23.9261C103.415 23.8655 103.839 23.8163 104.165 23.7784C104.491 23.7367 104.727 23.6705 104.875 23.5795C105.023 23.4886 105.097 23.3409 105.097 23.1364V23.0966C105.097 22.6004 104.956 22.2159 104.676 21.9432C104.4 21.6705 103.987 21.5341 103.438 21.5341C102.866 21.5341 102.415 21.661 102.085 21.9148C101.759 22.1648 101.534 22.4432 101.409 22.75L99.8125 22.3864C100.002 21.8561 100.278 21.428 100.642 21.1023C101.009 20.7727 101.432 20.5341 101.909 20.3864C102.386 20.2348 102.888 20.1591 103.415 20.1591C103.763 20.1591 104.133 20.2008 104.523 20.2841C104.917 20.3636 105.284 20.5114 105.625 20.7273C105.97 20.9432 106.252 21.2519 106.472 21.6534C106.691 22.0511 106.801 22.5682 106.801 23.2045V29H105.142V27.8068H105.074C104.964 28.0265 104.799 28.2424 104.58 28.4545C104.36 28.6667 104.078 28.8428 103.733 28.983C103.388 29.1231 102.975 29.1932 102.494 29.1932ZM102.864 27.8295C103.333 27.8295 103.735 27.7367 104.068 27.5511C104.405 27.3655 104.661 27.1231 104.835 26.8239C105.013 26.5208 105.102 26.197 105.102 25.8523V24.7273C105.042 24.7879 104.924 24.8447 104.75 24.8977C104.58 24.947 104.384 24.9905 104.165 25.0284C103.945 25.0625 103.731 25.0947 103.523 25.125C103.314 25.1515 103.14 25.1742 103 25.1932C102.67 25.2348 102.369 25.3049 102.097 25.4034C101.828 25.5019 101.612 25.6439 101.449 25.8295C101.29 26.0114 101.21 26.2538 101.21 26.5568C101.21 26.9773 101.366 27.2955 101.676 27.5114C101.987 27.7235 102.383 27.8295 102.864 27.8295ZM109.064 29V20.2727H110.695V21.6932H110.803C110.984 21.2121 111.282 20.8371 111.695 20.5682C112.107 20.2955 112.602 20.1591 113.178 20.1591C113.761 20.1591 114.25 20.2955 114.643 20.5682C115.041 20.8409 115.335 21.2159 115.524 21.6932H115.615C115.823 21.2273 116.155 20.8561 116.609 20.5795C117.064 20.2992 117.606 20.1591 118.234 20.1591C119.026 20.1591 119.672 20.4072 120.172 20.9034C120.676 21.3996 120.928 22.1477 120.928 23.1477V29H119.229V23.3068C119.229 22.7159 119.068 22.2879 118.746 22.0227C118.424 21.7576 118.039 21.625 117.592 21.625C117.039 21.625 116.609 21.7955 116.303 22.1364C115.996 22.4735 115.842 22.9072 115.842 23.4375V29H114.149V23.1989C114.149 22.7254 114.001 22.3447 113.706 22.0568C113.411 21.7689 113.026 21.625 112.553 21.625C112.231 21.625 111.933 21.7102 111.661 21.8807C111.392 22.0473 111.174 22.2803 111.007 22.5795C110.844 22.8788 110.763 23.2254 110.763 23.6193V29H109.064ZM126.966 29.1761C126.106 29.1761 125.366 28.9924 124.744 28.625C124.127 28.2538 123.65 27.733 123.312 27.0625C122.979 26.3883 122.812 25.5985 122.812 24.6932C122.812 23.7992 122.979 23.0114 123.312 22.3295C123.65 21.6477 124.119 21.1155 124.722 20.733C125.328 20.3504 126.036 20.1591 126.847 20.1591C127.339 20.1591 127.816 20.2405 128.278 20.4034C128.741 20.5663 129.155 20.822 129.523 21.1705C129.89 21.5189 130.18 21.9716 130.392 22.5284C130.604 23.0814 130.71 23.7538 130.71 24.5455V25.1477H123.773V23.875H129.045C129.045 23.428 128.955 23.0322 128.773 22.6875C128.591 22.339 128.335 22.0644 128.006 21.8636C127.68 21.6629 127.297 21.5625 126.858 21.5625C126.381 21.5625 125.964 21.6799 125.608 21.9148C125.256 22.1458 124.983 22.4489 124.79 22.8239C124.6 23.1951 124.506 23.5985 124.506 24.0341V25.0284C124.506 25.6117 124.608 26.108 124.812 26.517C125.021 26.9261 125.311 27.2386 125.682 27.4545C126.053 27.6667 126.487 27.7727 126.983 27.7727C127.305 27.7727 127.598 27.7273 127.864 27.6364C128.129 27.5417 128.358 27.4015 128.551 27.2159C128.744 27.0303 128.892 26.8011 128.994 26.5284L130.602 26.8182C130.473 27.2917 130.242 27.7064 129.909 28.0625C129.58 28.4148 129.165 28.6894 128.665 28.8864C128.169 29.0795 127.602 29.1761 126.966 29.1761ZM139.135 22.4034L137.595 22.6761C137.531 22.4792 137.429 22.2917 137.288 22.1136C137.152 21.9356 136.966 21.7898 136.732 21.6761C136.497 21.5625 136.203 21.5057 135.851 21.5057C135.37 21.5057 134.968 21.6136 134.646 21.8295C134.324 22.0417 134.163 22.3163 134.163 22.6534C134.163 22.9451 134.271 23.1799 134.487 23.358C134.703 23.536 135.052 23.6818 135.533 23.7955L136.919 24.1136C137.722 24.2992 138.321 24.5852 138.714 24.9716C139.108 25.358 139.305 25.8598 139.305 26.4773C139.305 27 139.154 27.4659 138.851 27.875C138.552 28.2803 138.133 28.5985 137.595 28.8295C137.061 29.0606 136.442 29.1761 135.737 29.1761C134.76 29.1761 133.963 28.9678 133.345 28.5511C132.728 28.1307 132.349 27.5341 132.209 26.7614L133.851 26.5114C133.953 26.9394 134.163 27.2633 134.482 27.483C134.8 27.6989 135.214 27.8068 135.726 27.8068C136.283 27.8068 136.728 27.6913 137.061 27.4602C137.394 27.2254 137.561 26.9394 137.561 26.6023C137.561 26.3295 137.459 26.1004 137.254 25.9148C137.054 25.7292 136.745 25.589 136.328 25.4943L134.851 25.1705C134.036 24.9848 133.434 24.6894 133.044 24.2841C132.658 23.8788 132.464 23.3655 132.464 22.7443C132.464 22.2292 132.608 21.7784 132.896 21.392C133.184 21.0057 133.582 20.7045 134.089 20.4886C134.597 20.2689 135.179 20.1591 135.834 20.1591C136.777 20.1591 137.519 20.3636 138.061 20.7727C138.603 21.178 138.961 21.7216 139.135 22.4034Z" fill="#1C9287"/>
</svg>
