<svg width="48" height="48" viewBox="0 0 48 48" fill="none" xmlns="http://www.w3.org/2000/svg">
<g clip-path="url(#clip0_186_1300)">
<rect width="48" height="48" rx="16" fill="url(#paint0_linear_186_1300)"/>
<mask id="path-2-inside-1_186_1300" fill="white">
<path fill-rule="evenodd" clip-rule="evenodd" d="M26.8172 21.7298C26.3725 23.3122 24.7424 24.2707 23.1762 23.8705C21.61 23.4704 20.7009 21.8633 21.1456 20.2809L23.1918 13C19.5683 13.3143 16.3663 15.7356 15.3697 19.2817C14.3214 23.0117 16.0389 26.8271 19.3237 28.7484L17.6066 33.9458C17.5633 34.0285 17.5308 34.1008 17.5091 34.1628V34.3489C17.5091 34.535 17.5741 34.69 17.7041 34.814C17.834 34.9381 17.9965 35.0001 18.1914 35.0001H22.17C22.4516 35.0001 22.6683 34.9277 22.8199 34.783C22.9715 34.659 23.0798 34.5143 23.1448 34.3489L24.3551 30.0015C28.1626 29.8586 31.5934 27.3853 32.6315 23.6916C33.6508 20.0647 32.055 16.3571 28.9462 14.3886C28.3223 16.6083 27.441 19.6055 27.0348 20.9872C26.9131 21.4013 26.834 21.6703 26.8172 21.7298Z"/>
</mask>
<path d="M23.1762 23.8705L23.4237 22.9016L23.1762 23.8705ZM26.8172 21.7298L27.7799 22.0003L27.7799 22.0003L26.8172 21.7298ZM21.1456 20.2808L22.1083 20.5514L21.1456 20.2808ZM23.1918 13L24.1545 13.2706L24.5456 11.8788L23.1053 12.0037L23.1918 13ZM15.3697 19.2817L16.3324 19.5522L15.3697 19.2817ZM19.3237 28.7483L20.2732 29.062L20.527 28.2937L19.8286 27.8852L19.3237 28.7483ZM17.6066 33.9458L18.4924 34.4098L18.5304 34.3372L18.5561 34.2595L17.6066 33.9458ZM17.5091 34.1628L16.565 33.8331L16.5091 33.9932V34.1628H17.5091ZM17.7041 34.814L17.0136 35.5375L17.0136 35.5375L17.7041 34.814ZM22.8199 34.783L22.1867 34.009L22.1571 34.0332L22.1295 34.0596L22.8199 34.783ZM23.1448 34.3489L24.0755 34.7146L24.0944 34.6667L24.1082 34.6171L23.1448 34.3489ZM24.3551 30.0015L24.3176 29.0022L23.5876 29.0296L23.3917 29.7333L24.3551 30.0015ZM32.6315 23.6916L31.6688 23.421H31.6688L32.6315 23.6916ZM28.9462 14.3885L29.4812 13.5436L28.3468 12.8254L27.9835 14.1179L28.9462 14.3885ZM27.0348 20.9872L26.0754 20.7051V20.7051L27.0348 20.9872ZM22.9287 24.8394C25.0356 25.3776 27.1924 24.0908 27.7799 22.0003L25.8545 21.4592C25.5526 22.5336 24.4491 23.1636 23.4237 22.9016L22.9287 24.8394ZM20.1829 20.0103C19.5907 22.1176 20.8026 24.2962 22.9287 24.8394L23.4237 22.9016C22.4174 22.6445 21.8111 21.6089 22.1083 20.5514L20.1829 20.0103ZM22.2291 12.7294L20.1829 20.0103L22.1083 20.5514L24.1545 13.2706L22.2291 12.7294ZM16.3324 19.5522C17.2063 16.4427 20.0309 14.2779 23.2782 13.9963L23.1053 12.0037C19.1057 12.3507 15.5263 15.0284 14.407 19.0111L16.3324 19.5522ZM19.8286 27.8852C16.9075 26.1765 15.4161 22.8125 16.3324 19.5522L14.407 19.0111C13.2267 23.2109 15.1704 27.4775 18.8188 29.6115L19.8286 27.8852ZM18.5561 34.2595L20.2732 29.062L18.3741 28.4347L16.6571 33.6321L18.5561 34.2595ZM18.4532 34.4926C18.4528 34.4935 18.4551 34.4869 18.4619 34.4717C18.4686 34.4568 18.4785 34.4364 18.4924 34.4098L16.7208 33.4817C16.6634 33.5912 16.608 33.7102 16.565 33.8331L18.4532 34.4926ZM18.5091 34.3489V34.1628H16.5091V34.3489H18.5091ZM18.3945 34.0906C18.4222 34.1171 18.4558 34.1601 18.4801 34.2182C18.5041 34.2755 18.5091 34.3234 18.5091 34.3489H16.5091C16.5091 34.7973 16.6782 35.2173 17.0136 35.5375L18.3945 34.0906ZM18.1914 34.0001C18.2012 34.0001 18.2344 34.0019 18.28 34.0194C18.3271 34.0373 18.3666 34.064 18.3945 34.0906L17.0136 35.5375C17.3463 35.8549 17.7633 36.0001 18.1914 36.0001V34.0001ZM22.17 34.0001H18.1914V36.0001H22.17V34.0001ZM22.1295 34.0596C22.148 34.0419 22.1676 34.0275 22.1862 34.0165C22.2045 34.0057 22.219 34 22.2269 33.9974C22.2413 33.9925 22.2273 34.0001 22.17 34.0001V36.0001C22.6184 36.0001 23.1162 35.8826 23.5103 35.5064L22.1295 34.0596ZM22.2141 33.9832C22.2149 33.9811 22.2157 33.9803 22.2142 33.9823C22.2125 33.9846 22.2051 33.994 22.1867 34.009L23.4531 35.557C23.7233 35.336 23.9417 35.0552 24.0755 34.7146L22.2141 33.9832ZM23.3917 29.7333L22.1814 34.0807L24.1082 34.6171L25.3185 30.2697L23.3917 29.7333ZM31.6688 23.421C30.7585 26.66 27.7306 28.874 24.3176 29.0022L24.3926 31.0008C28.5946 30.843 32.4283 28.1106 33.5942 23.9621L31.6688 23.421ZM28.4112 15.2334C31.1743 16.983 32.5599 20.2502 31.6688 23.421L33.5942 23.9621C34.7417 19.8791 32.9358 15.7311 29.4812 13.5436L28.4112 15.2334ZM27.9942 21.2692C28.4 19.8889 29.283 16.8857 29.9089 14.6591L27.9835 14.1179C27.3615 16.3308 26.4821 19.3219 26.0754 20.7051L27.9942 21.2692ZM27.7799 22.0003C27.7945 21.9484 27.8707 21.6892 27.9942 21.2692L26.0754 20.7051C25.9554 21.1132 25.8734 21.392 25.8545 21.4592L27.7799 22.0003Z" fill="white" mask="url(#path-2-inside-1_186_1300)"/>
<rect x="9" y="9" width="30" height="30" rx="7" stroke="white" stroke-width="2"/>
</g>
<defs>
<linearGradient id="paint0_linear_186_1300" x1="9" y1="5" x2="38.5" y2="48" gradientUnits="userSpaceOnUse">
<stop stop-color="#45ACA3"/>
<stop offset="0.953686" stop-color="#1C9287"/>
</linearGradient>
<clipPath id="clip0_186_1300">
<rect width="48" height="48" rx="16" fill="white"/>
</clipPath>
</defs>
</svg>
