<svg width="237" height="48" viewBox="0 0 237 48" fill="none" xmlns="http://www.w3.org/2000/svg">
<path d="M14 40H12V38H10V40H8V33H10V36H12V33H14V40Z" fill="#1C9287"/>
<path d="M20.9916 36.4277C21.0268 36.9196 20.9512 37.413 20.77 37.8738C20.5889 38.3345 20.3065 38.7517 19.9424 39.0964C19.1267 39.7339 18.4463 40.053 17.4 39.9903L15 39.99V33H17.2627C17.9425 32.9799 18.6178 33.114 19.2346 33.3917C19.7661 33.6431 20.2067 34.0442 20.4986 34.5425C20.832 35.1177 21.0021 35.7681 20.9916 36.4277ZM19 36.4277C19 35.998 18.9908 35.8828 18.6 35.4C18.3462 35.0865 17.8301 35.0046 17.6011 34.998C17.3721 34.9914 17.5 34.998 17.2627 34.998H17V37.998H17.4C18.8789 38.0348 19 36.998 19 36.4644C19 36.4644 19 36.8573 19 36.4277Z" fill="#1C9287"/>
<path d="M31 12H17V15H31V12Z" fill="#1C9287"/>
<path d="M31 32H24V33H31V32Z" fill="#1C9287"/>
<path d="M31 29H17V30H31V29Z" fill="#1C9287"/>
<path d="M31 26H17V27H31V26Z" fill="#1C9287"/>
<path d="M22 23H17V24H22V23Z" fill="#1C9287"/>
<path d="M22 20H17V21H22V20Z" fill="#1C9287"/>
<path d="M22 17H17V18H22V17Z" fill="#1C9287"/>
<path d="M31 17H24V24H31V17Z" fill="#1C9287"/>
<path fill-rule="evenodd" clip-rule="evenodd" d="M17 10H31C32.1046 10 33 10.8954 33 12V34C33 35.1046 32.1046 36 31 36H24V38H31C33.2091 38 35 36.2091 35 34V12C35 9.79086 33.2091 8 31 8H17C14.7909 8 13 9.79086 13 12V30H15V12C15 10.8954 15.8954 10 17 10Z" fill="#1C9287"/>
<path d="M53.2784 29V17.3636H55.0341V22.4205H60.8352V17.3636H62.5966V29H60.8352V23.9261H55.0341V29H53.2784ZM65.017 29V20.2727H66.7159V29H65.017ZM65.875 18.9261C65.5795 18.9261 65.3258 18.8277 65.1136 18.6307C64.9053 18.4299 64.8011 18.1913 64.8011 17.9148C64.8011 17.6345 64.9053 17.3958 65.1136 17.1989C65.3258 16.9981 65.5795 16.8977 65.875 16.8977C66.1705 16.8977 66.4223 16.9981 66.6307 17.1989C66.8428 17.3958 66.9489 17.6345 66.9489 17.9148C66.9489 18.1913 66.8428 18.4299 66.6307 18.6307C66.4223 18.8277 66.1705 18.9261 65.875 18.9261ZM72.6605 32.4545C71.9673 32.4545 71.3707 32.3636 70.8707 32.1818C70.3745 32 69.9692 31.7595 69.6548 31.4602C69.3404 31.161 69.1056 30.8333 68.9503 30.4773L70.4105 29.875C70.5128 30.0417 70.6491 30.2178 70.8196 30.4034C70.9938 30.5928 71.2287 30.7538 71.5241 30.8864C71.8234 31.0189 72.2079 31.0852 72.6776 31.0852C73.3215 31.0852 73.8537 30.928 74.2741 30.6136C74.6946 30.303 74.9048 29.8068 74.9048 29.125V27.4091H74.7969C74.6946 27.5947 74.5469 27.8011 74.3537 28.0284C74.1643 28.2557 73.9029 28.4527 73.5696 28.6193C73.2363 28.786 72.8026 28.8693 72.2685 28.8693C71.5791 28.8693 70.9579 28.7083 70.4048 28.3864C69.8556 28.0606 69.42 27.5814 69.098 26.9489C68.7798 26.3125 68.6207 25.5303 68.6207 24.6023C68.6207 23.6742 68.7779 22.8788 69.0923 22.2159C69.4105 21.553 69.8461 21.0455 70.3991 20.6932C70.9522 20.3371 71.5791 20.1591 72.2798 20.1591C72.8215 20.1591 73.259 20.25 73.5923 20.4318C73.9257 20.6098 74.1851 20.8182 74.3707 21.0568C74.5601 21.2955 74.706 21.5057 74.8082 21.6875H74.9332V20.2727H76.598V29.1932C76.598 29.9432 76.4238 30.5587 76.0753 31.0398C75.7268 31.5208 75.2552 31.8769 74.6605 32.108C74.0696 32.339 73.4029 32.4545 72.6605 32.4545ZM72.6435 27.4602C73.1321 27.4602 73.545 27.3466 73.8821 27.1193C74.223 26.8883 74.4806 26.5587 74.6548 26.1307C74.8329 25.6989 74.9219 25.1818 74.9219 24.5795C74.9219 23.9924 74.8348 23.4754 74.6605 23.0284C74.4863 22.5814 74.2306 22.233 73.8935 21.983C73.5563 21.7292 73.1397 21.6023 72.6435 21.6023C72.1321 21.6023 71.706 21.7348 71.3651 22C71.0241 22.2614 70.7666 22.6174 70.5923 23.0682C70.4219 23.5189 70.3366 24.0227 70.3366 24.5795C70.3366 25.1515 70.4238 25.6534 70.598 26.0852C70.7723 26.517 71.0298 26.8542 71.3707 27.0966C71.7154 27.339 72.1397 27.4602 72.6435 27.4602ZM80.5753 23.8182V29H78.8764V17.3636H80.5526V21.6932H80.6605C80.8651 21.2235 81.1776 20.8504 81.598 20.5739C82.0185 20.2973 82.5677 20.1591 83.2457 20.1591C83.8442 20.1591 84.367 20.2822 84.8139 20.5284C85.2647 20.7746 85.6132 21.142 85.8594 21.6307C86.1094 22.1155 86.2344 22.7216 86.2344 23.4489V29H84.5355V23.6534C84.5355 23.0133 84.3707 22.517 84.0412 22.1648C83.7116 21.8087 83.2533 21.6307 82.6662 21.6307C82.2647 21.6307 81.9048 21.7159 81.5866 21.8864C81.2723 22.0568 81.0241 22.3068 80.8423 22.6364C80.6643 22.9621 80.5753 23.3561 80.5753 23.8182ZM93.6435 23.3466V24.8182H88.4844V23.3466H93.6435ZM96.044 29V17.3636H103.26V18.875H97.7997V22.4205H102.743V23.9261H97.7997V29H96.044ZM105.283 29V20.2727H106.982V29H105.283ZM106.141 18.9261C105.845 18.9261 105.591 18.8277 105.379 18.6307C105.171 18.4299 105.067 18.1913 105.067 17.9148C105.067 17.6345 105.171 17.3958 105.379 17.1989C105.591 16.9981 105.845 16.8977 106.141 16.8977C106.436 16.8977 106.688 16.9981 106.896 17.1989C107.108 17.3958 107.214 17.6345 107.214 17.9148C107.214 18.1913 107.108 18.4299 106.896 18.6307C106.688 18.8277 106.436 18.9261 106.141 18.9261ZM112.534 29.1705C111.83 29.1705 111.201 28.9905 110.648 28.6307C110.098 28.267 109.667 27.75 109.352 27.0795C109.042 26.4053 108.886 25.5966 108.886 24.6534C108.886 23.7102 109.044 22.9034 109.358 22.233C109.676 21.5625 110.112 21.0492 110.665 20.6932C111.218 20.3371 111.845 20.1591 112.545 20.1591C113.087 20.1591 113.523 20.25 113.852 20.4318C114.186 20.6098 114.443 20.8182 114.625 21.0568C114.811 21.2955 114.955 21.5057 115.057 21.6875H115.159V17.3636H116.858V29H115.199V27.642H115.057C114.955 27.8277 114.807 28.0398 114.614 28.2784C114.424 28.517 114.163 28.7254 113.83 28.9034C113.496 29.0814 113.064 29.1705 112.534 29.1705ZM112.909 27.7216C113.398 27.7216 113.811 27.5928 114.148 27.3352C114.489 27.0739 114.746 26.7121 114.92 26.25C115.098 25.7879 115.188 25.25 115.188 24.6364C115.188 24.0303 115.1 23.5 114.926 23.0455C114.752 22.5909 114.496 22.2367 114.159 21.983C113.822 21.7292 113.405 21.6023 112.909 21.6023C112.398 21.6023 111.972 21.7348 111.631 22C111.29 22.2652 111.032 22.6269 110.858 23.0852C110.688 23.5436 110.602 24.0606 110.602 24.6364C110.602 25.2197 110.689 25.7443 110.864 26.2102C111.038 26.6761 111.295 27.0455 111.636 27.3182C111.981 27.5871 112.405 27.7216 112.909 27.7216ZM123.044 29.1761C122.184 29.1761 121.444 28.9924 120.822 28.625C120.205 28.2538 119.728 27.733 119.391 27.0625C119.057 26.3883 118.891 25.5985 118.891 24.6932C118.891 23.7992 119.057 23.0114 119.391 22.3295C119.728 21.6477 120.197 21.1155 120.8 20.733C121.406 20.3504 122.114 20.1591 122.925 20.1591C123.417 20.1591 123.894 20.2405 124.357 20.4034C124.819 20.5663 125.233 20.822 125.601 21.1705C125.968 21.5189 126.258 21.9716 126.47 22.5284C126.682 23.0814 126.788 23.7538 126.788 24.5455V25.1477H119.851V23.875H125.124C125.124 23.428 125.033 23.0322 124.851 22.6875C124.669 22.339 124.413 22.0644 124.084 21.8636C123.758 21.6629 123.375 21.5625 122.936 21.5625C122.459 21.5625 122.042 21.6799 121.686 21.9148C121.334 22.1458 121.061 22.4489 120.868 22.8239C120.679 23.1951 120.584 23.5985 120.584 24.0341V25.0284C120.584 25.6117 120.686 26.108 120.891 26.517C121.099 26.9261 121.389 27.2386 121.76 27.4545C122.131 27.6667 122.565 27.7727 123.061 27.7727C123.383 27.7727 123.677 27.7273 123.942 27.6364C124.207 27.5417 124.436 27.4015 124.629 27.2159C124.822 27.0303 124.97 26.8011 125.072 26.5284L126.68 26.8182C126.552 27.2917 126.321 27.7064 125.987 28.0625C125.658 28.4148 125.243 28.6894 124.743 28.8864C124.247 29.0795 123.68 29.1761 123.044 29.1761ZM130.372 17.3636V29H128.673V17.3636H130.372ZM132.658 29V20.2727H134.357V29H132.658ZM133.516 18.9261C133.22 18.9261 132.966 18.8277 132.754 18.6307C132.546 18.4299 132.442 18.1913 132.442 17.9148C132.442 17.6345 132.546 17.3958 132.754 17.1989C132.966 16.9981 133.22 16.8977 133.516 16.8977C133.811 16.8977 134.063 16.9981 134.271 17.1989C134.483 17.3958 134.589 17.6345 134.589 17.9148C134.589 18.1913 134.483 18.4299 134.271 18.6307C134.063 18.8277 133.811 18.9261 133.516 18.9261ZM140.716 20.2727V21.6364H135.949V20.2727H140.716ZM137.227 18.1818H138.926V26.4375C138.926 26.767 138.975 27.0152 139.074 27.1818C139.172 27.3447 139.299 27.4564 139.455 27.517C139.614 27.5739 139.786 27.6023 139.972 27.6023C140.108 27.6023 140.227 27.5928 140.33 27.5739C140.432 27.5549 140.511 27.5398 140.568 27.5284L140.875 28.9318C140.777 28.9697 140.636 29.0076 140.455 29.0455C140.273 29.0871 140.045 29.1098 139.773 29.1136C139.326 29.1212 138.909 29.0417 138.523 28.875C138.136 28.7083 137.824 28.4508 137.585 28.1023C137.347 27.7538 137.227 27.3163 137.227 26.7898V18.1818ZM143.669 32.2727C143.415 32.2727 143.184 32.2519 142.976 32.2102C142.768 32.1723 142.612 32.1307 142.51 32.0852L142.919 30.6932C143.23 30.7765 143.506 30.8125 143.749 30.8011C143.991 30.7898 144.205 30.6989 144.391 30.5284C144.58 30.358 144.747 30.0795 144.891 29.6932L145.101 29.1136L141.908 20.2727H143.726L145.936 27.0455H146.027L148.237 20.2727H150.061L146.464 30.1648C146.298 30.6193 146.086 31.0038 145.828 31.3182C145.571 31.6364 145.264 31.875 144.908 32.0341C144.552 32.1932 144.139 32.2727 143.669 32.2727ZM162.375 20.4205C162.314 19.8826 162.064 19.4659 161.625 19.1705C161.186 18.8712 160.633 18.7216 159.966 18.7216C159.489 18.7216 159.076 18.7973 158.727 18.9489C158.379 19.0966 158.108 19.3011 157.915 19.5625C157.725 19.8201 157.631 20.1136 157.631 20.4432C157.631 20.7197 157.695 20.9583 157.824 21.1591C157.956 21.3598 158.129 21.5284 158.341 21.6648C158.557 21.7973 158.788 21.9091 159.034 22C159.28 22.0871 159.517 22.1591 159.744 22.2159L160.881 22.5114C161.252 22.6023 161.633 22.7254 162.023 22.8807C162.413 23.036 162.775 23.2405 163.108 23.4943C163.441 23.7481 163.71 24.0625 163.915 24.4375C164.123 24.8125 164.227 25.2614 164.227 25.7841C164.227 26.4432 164.057 27.0284 163.716 27.5398C163.379 28.0511 162.888 28.4545 162.244 28.75C161.604 29.0455 160.83 29.1932 159.92 29.1932C159.049 29.1932 158.295 29.0549 157.659 28.7784C157.023 28.5019 156.525 28.1098 156.165 27.6023C155.805 27.0909 155.606 26.4848 155.568 25.7841H157.33C157.364 26.2045 157.5 26.5549 157.739 26.8352C157.981 27.1117 158.29 27.3182 158.665 27.4545C159.044 27.5871 159.458 27.6534 159.909 27.6534C160.405 27.6534 160.847 27.5758 161.233 27.4205C161.623 27.2614 161.93 27.0417 162.153 26.7614C162.377 26.4773 162.489 26.1458 162.489 25.767C162.489 25.4223 162.39 25.1402 162.193 24.9205C162 24.7008 161.737 24.5189 161.403 24.375C161.074 24.2311 160.701 24.1042 160.284 23.9943L158.909 23.6193C157.977 23.3655 157.239 22.9924 156.693 22.5C156.152 22.0076 155.881 21.3561 155.881 20.5455C155.881 19.875 156.063 19.2898 156.426 18.7898C156.79 18.2898 157.282 17.9015 157.903 17.625C158.525 17.3447 159.225 17.2045 160.006 17.2045C160.794 17.2045 161.489 17.3428 162.091 17.6193C162.697 17.8958 163.174 18.2765 163.523 18.7614C163.871 19.2424 164.053 19.7955 164.068 20.4205H162.375ZM169.865 29.1761C169.02 29.1761 168.293 28.9848 167.683 28.6023C167.077 28.2159 166.611 27.6837 166.286 27.0057C165.96 26.3277 165.797 25.5511 165.797 24.6761C165.797 23.7898 165.964 23.0076 166.297 22.3295C166.63 21.6477 167.1 21.1155 167.706 20.733C168.312 20.3504 169.026 20.1591 169.848 20.1591C170.511 20.1591 171.102 20.2822 171.621 20.5284C172.14 20.7708 172.558 21.1117 172.876 21.5511C173.198 21.9905 173.39 22.5038 173.45 23.0909H171.797C171.706 22.6818 171.498 22.3295 171.172 22.0341C170.85 21.7386 170.418 21.5909 169.876 21.5909C169.403 21.5909 168.988 21.7159 168.632 21.9659C168.28 22.2121 168.005 22.5644 167.808 23.0227C167.611 23.4773 167.513 24.0152 167.513 24.6364C167.513 25.2727 167.609 25.822 167.803 26.2841C167.996 26.7462 168.268 27.1042 168.621 27.358C168.977 27.6117 169.395 27.7386 169.876 27.7386C170.198 27.7386 170.49 27.6799 170.751 27.5625C171.017 27.4413 171.238 27.2689 171.416 27.0455C171.598 26.822 171.725 26.553 171.797 26.2386H173.45C173.39 26.803 173.206 27.3068 172.899 27.75C172.592 28.1932 172.181 28.5417 171.666 28.7955C171.155 29.0492 170.554 29.1761 169.865 29.1761ZM175.267 29V20.2727H176.909V21.6591H177C177.159 21.1894 177.439 20.8201 177.841 20.5511C178.246 20.2784 178.705 20.142 179.216 20.142C179.322 20.142 179.447 20.1458 179.591 20.1534C179.739 20.161 179.854 20.1705 179.938 20.1818V21.8068C179.869 21.7879 179.748 21.767 179.574 21.7443C179.4 21.7178 179.225 21.7045 179.051 21.7045C178.65 21.7045 178.292 21.7898 177.977 21.9602C177.667 22.1269 177.42 22.3598 177.239 22.6591C177.057 22.9545 176.966 23.2917 176.966 23.6705V29H175.267ZM184.857 29.1761C183.997 29.1761 183.256 28.9924 182.635 28.625C182.018 28.2538 181.54 27.733 181.203 27.0625C180.87 26.3883 180.703 25.5985 180.703 24.6932C180.703 23.7992 180.87 23.0114 181.203 22.3295C181.54 21.6477 182.01 21.1155 182.612 20.733C183.218 20.3504 183.927 20.1591 184.737 20.1591C185.23 20.1591 185.707 20.2405 186.169 20.4034C186.631 20.5663 187.046 20.822 187.413 21.1705C187.781 21.5189 188.071 21.9716 188.283 22.5284C188.495 23.0814 188.601 23.7538 188.601 24.5455V25.1477H181.663V23.875H186.936C186.936 23.428 186.845 23.0322 186.663 22.6875C186.482 22.339 186.226 22.0644 185.896 21.8636C185.571 21.6629 185.188 21.5625 184.749 21.5625C184.271 21.5625 183.855 21.6799 183.499 21.9148C183.146 22.1458 182.874 22.4489 182.68 22.8239C182.491 23.1951 182.396 23.5985 182.396 24.0341V25.0284C182.396 25.6117 182.499 26.108 182.703 26.517C182.911 26.9261 183.201 27.2386 183.572 27.4545C183.944 27.6667 184.377 27.7727 184.874 27.7727C185.196 27.7727 185.489 27.7273 185.754 27.6364C186.019 27.5417 186.249 27.4015 186.442 27.2159C186.635 27.0303 186.783 26.8011 186.885 26.5284L188.493 26.8182C188.364 27.2917 188.133 27.7064 187.8 28.0625C187.47 28.4148 187.055 28.6894 186.555 28.8864C186.059 29.0795 185.493 29.1761 184.857 29.1761ZM194.247 29.1761C193.387 29.1761 192.647 28.9924 192.026 28.625C191.408 28.2538 190.931 27.733 190.594 27.0625C190.26 26.3883 190.094 25.5985 190.094 24.6932C190.094 23.7992 190.26 23.0114 190.594 22.3295C190.931 21.6477 191.401 21.1155 192.003 20.733C192.609 20.3504 193.317 20.1591 194.128 20.1591C194.62 20.1591 195.098 20.2405 195.56 20.4034C196.022 20.5663 196.437 20.822 196.804 21.1705C197.171 21.5189 197.461 21.9716 197.673 22.5284C197.885 23.0814 197.991 23.7538 197.991 24.5455V25.1477H191.054V23.875H196.327C196.327 23.428 196.236 23.0322 196.054 22.6875C195.872 22.339 195.616 22.0644 195.287 21.8636C194.961 21.6629 194.579 21.5625 194.139 21.5625C193.662 21.5625 193.245 21.6799 192.889 21.9148C192.537 22.1458 192.264 22.4489 192.071 22.8239C191.882 23.1951 191.787 23.5985 191.787 24.0341V25.0284C191.787 25.6117 191.889 26.108 192.094 26.517C192.302 26.9261 192.592 27.2386 192.963 27.4545C193.334 27.6667 193.768 27.7727 194.264 27.7727C194.586 27.7727 194.88 27.7273 195.145 27.6364C195.41 27.5417 195.639 27.4015 195.832 27.2159C196.026 27.0303 196.173 26.8011 196.276 26.5284L197.884 26.8182C197.755 27.2917 197.524 27.7064 197.19 28.0625C196.861 28.4148 196.446 28.6894 195.946 28.8864C195.45 29.0795 194.884 29.1761 194.247 29.1761ZM201.575 23.8182V29H199.876V20.2727H201.507V21.6932H201.615C201.816 21.2311 202.13 20.8598 202.558 20.5795C202.99 20.2992 203.534 20.1591 204.189 20.1591C204.784 20.1591 205.304 20.2841 205.751 20.5341C206.198 20.7803 206.545 21.1477 206.791 21.6364C207.037 22.125 207.161 22.7292 207.161 23.4489V29H205.462V23.6534C205.462 23.0208 205.297 22.5265 204.967 22.1705C204.638 21.8106 204.185 21.6307 203.609 21.6307C203.215 21.6307 202.865 21.7159 202.558 21.8864C202.255 22.0568 202.015 22.3068 201.837 22.6364C201.662 22.9621 201.575 23.3561 201.575 23.8182ZM215.979 22.4034L214.439 22.6761C214.375 22.4792 214.272 22.2917 214.132 22.1136C213.996 21.9356 213.81 21.7898 213.575 21.6761C213.34 21.5625 213.047 21.5057 212.695 21.5057C212.214 21.5057 211.812 21.6136 211.49 21.8295C211.168 22.0417 211.007 22.3163 211.007 22.6534C211.007 22.9451 211.115 23.1799 211.331 23.358C211.547 23.536 211.895 23.6818 212.376 23.7955L213.763 24.1136C214.566 24.2992 215.164 24.5852 215.558 24.9716C215.952 25.358 216.149 25.8598 216.149 26.4773C216.149 27 215.998 27.4659 215.695 27.875C215.395 28.2803 214.977 28.5985 214.439 28.8295C213.905 29.0606 213.286 29.1761 212.581 29.1761C211.604 29.1761 210.806 28.9678 210.189 28.5511C209.571 28.1307 209.193 27.5341 209.053 26.7614L210.695 26.5114C210.797 26.9394 211.007 27.2633 211.325 27.483C211.643 27.6989 212.058 27.8068 212.57 27.8068C213.126 27.8068 213.571 27.6913 213.905 27.4602C214.238 27.2254 214.405 26.9394 214.405 26.6023C214.405 26.3295 214.303 26.1004 214.098 25.9148C213.897 25.7292 213.589 25.589 213.172 25.4943L211.695 25.1705C210.88 24.9848 210.278 24.6894 209.888 24.2841C209.501 23.8788 209.308 23.3655 209.308 22.7443C209.308 22.2292 209.452 21.7784 209.74 21.392C210.028 21.0057 210.426 20.7045 210.933 20.4886C211.441 20.2689 212.022 20.1591 212.678 20.1591C213.621 20.1591 214.363 20.3636 214.905 20.7727C215.446 21.178 215.804 21.7216 215.979 22.4034Z" fill="#1C9287"/>
</svg>
