<svg width="48" height="48" viewBox="0 0 48 48" fill="none" xmlns="http://www.w3.org/2000/svg">
<circle cx="24" cy="24" r="24" fill="#C4C4C4"/>
<circle cx="24" cy="24" r="24" fill="url(#paint0_linear_146_896)"/>
<path d="M28.0607 15.0607C28.6464 14.4749 28.6464 13.5251 28.0607 12.9393C27.4749 12.3536 26.5251 12.3536 25.9393 12.9393L28.0607 15.0607ZM25.9393 35.0607C26.5251 35.6464 27.4749 35.6464 28.0607 35.0607C28.6464 34.4749 28.6464 33.5251 28.0607 32.9393L25.9393 35.0607ZM25.9393 12.9393L16.6464 22.2322L18.7678 24.3536L28.0607 15.0607L25.9393 12.9393ZM16.6464 25.7678L25.9393 35.0607L28.0607 32.9393L18.7678 23.6464L16.6464 25.7678ZM16.6464 22.2322C15.6701 23.2085 15.6701 24.7915 16.6464 25.7678L18.7678 23.6464C18.963 23.8417 18.963 24.1583 18.7678 24.3536L16.6464 22.2322Z" fill="white"/>
<defs>
<linearGradient id="paint0_linear_146_896" x1="9" y1="5" x2="38.5" y2="48" gradientUnits="userSpaceOnUse">
<stop stop-color="#45ACA3"/>
<stop offset="0.953686" stop-color="#1C9287"/>
</linearGradient>
</defs>
</svg>
