<svg width="48" height="48" viewBox="0 0 48 48" fill="none" xmlns="http://www.w3.org/2000/svg">
<path fill-rule="evenodd" clip-rule="evenodd" d="M32.9552 24.4412C32.172 24.1334 31.3355 23.9839 30.4941 24.0014C29.6527 23.9839 28.8162 24.1334 28.0329 24.4412C27.2462 24.7504 26.529 25.2131 25.9233 25.8023C25.3176 26.3915 24.8356 27.0954 24.5054 27.8729C24.1751 28.6504 24.0034 29.4859 24.0001 30.3305L24 30.3305L24.0002 30.341C24.0301 32.0912 24.7396 33.7612 25.9787 34.9988C27.2119 36.2305 28.8738 36.938 30.6166 36.9741C31.361 37.0574 32.1143 36.939 32.7974 36.6312L32.3866 35.7195C31.8611 35.9562 31.281 36.0456 30.7085 35.9781L30.6836 35.9752L30.6585 35.9747C29.1655 35.9492 27.741 35.3456 26.6854 34.2912C25.631 33.2381 25.027 31.8177 25.0001 30.3291C25.0035 29.6194 25.1482 28.9173 25.4258 28.2639C25.704 27.6088 26.1102 27.0156 26.6206 26.5191C27.1311 26.0225 27.7355 25.6325 28.3987 25.3719C29.0618 25.1113 29.7704 24.9853 30.4828 25.0014L30.4941 25.0016L30.5053 25.0014C31.2178 24.9853 31.9263 25.1113 32.5895 25.3719C33.2526 25.6325 33.8571 26.0225 34.3675 26.5191C34.878 27.0156 35.2842 27.6088 35.5624 28.2639C35.8406 28.9189 35.9853 29.6228 35.9881 30.3343L35.9881 30.3501L35.9892 30.3658C36.0401 31.1283 35.8509 32.0789 35.5405 32.803C35.4116 33.1039 35.2119 33.4932 34.9932 33.8474C34.8659 34.0535 34.7426 34.2303 34.6326 34.3672L33.7927 35.2071L38.7927 40.2071L40.2069 38.7929L35.8221 34.4081C35.8295 34.3963 35.8367 34.3846 35.844 34.3729C36.0878 33.9781 36.3106 33.5449 36.4597 33.197C36.8207 32.3547 37.0474 31.2541 36.988 30.3149C36.9827 29.4756 36.811 28.6457 36.4828 27.8729C36.1526 27.0954 35.6705 26.3915 35.0648 25.8023C34.4591 25.2131 33.742 24.7504 32.9552 24.4412Z" fill="#1C9287"/>
<path fill-rule="evenodd" clip-rule="evenodd" d="M34.026 32.0316C34.4156 30.9779 34.3398 29.7367 33.7151 28.6547C32.7753 27.027 30.9026 26.2948 29.2607 26.8025L30.0423 27.6601C31.0982 27.5484 32.2254 28.0746 32.849 29.1547C33.2235 29.8032 33.3342 30.5091 33.2277 31.1555L34.026 32.0316Z" fill="#1C9287"/>
<path fill-rule="evenodd" clip-rule="evenodd" d="M34 10H10V14H34V10ZM10 32V15H34V25.5984C34.9218 26.3594 35.632 27.3981 36 28.6113V10C36 8.89543 35.1046 8 34 8H10C8.89543 8 8 8.89543 8 10V32C8 33.1046 8.89543 34 10 34H25.4392C25.027 33.407 24.7109 32.7331 24.5183 32H10ZM24.7611 28C24.6315 28.3214 24.5279 28.6558 24.4524 29H13V28H24.7611ZM27 25.2188C26.6611 25.4466 26.3475 25.7088 26.0632 26H13V25H27V25.2188ZM33 11H32V12H33V11ZM30 11H31V12H30V11ZM29 11H28V12H29V11ZM13 18H31V23H13V18Z" fill="#1C9287"/>
</svg>
