<svg width="48" height="48" viewBox="0 0 48 48" fill="none" xmlns="http://www.w3.org/2000/svg">
<path d="M14 40H12V38H10V40H8V33H10V36H12V33H14V40Z" fill="#1C9287"/>
<path d="M20.9916 36.4277C21.0268 36.9196 20.9512 37.413 20.77 37.8738C20.5889 38.3345 20.3065 38.7517 19.9424 39.0964C19.1267 39.7339 18.4463 40.053 17.4 39.9903L15 39.99V33H17.2627C17.9425 32.9799 18.6178 33.114 19.2346 33.3917C19.7661 33.6431 20.2067 34.0442 20.4986 34.5425C20.832 35.1177 21.0021 35.7681 20.9916 36.4277ZM19 36.4277C19 35.998 18.9908 35.8828 18.6 35.4C18.3462 35.0865 17.8301 35.0046 17.6011 34.998C17.3721 34.9914 17.5 34.998 17.2627 34.998H17V37.998H17.4C18.8789 38.0348 19 36.998 19 36.4644C19 36.4644 19 36.8573 19 36.4277Z" fill="#1C9287"/>
<path d="M31 12H17V15H31V12Z" fill="#1C9287"/>
<path d="M31 32H24V33H31V32Z" fill="#1C9287"/>
<path d="M31 29H17V30H31V29Z" fill="#1C9287"/>
<path d="M31 26H17V27H31V26Z" fill="#1C9287"/>
<path d="M22 23H17V24H22V23Z" fill="#1C9287"/>
<path d="M22 20H17V21H22V20Z" fill="#1C9287"/>
<path d="M22 17H17V18H22V17Z" fill="#1C9287"/>
<path d="M31 17H24V24H31V17Z" fill="#1C9287"/>
<path fill-rule="evenodd" clip-rule="evenodd" d="M17 10H31C32.1046 10 33 10.8954 33 12V34C33 35.1046 32.1046 36 31 36H24V38H31C33.2091 38 35 36.2091 35 34V12C35 9.79086 33.2091 8 31 8H17C14.7909 8 13 9.79086 13 12V30H15V12C15 10.8954 15.8954 10 17 10Z" fill="#1C9287"/>
</svg>
