<svg width="140" height="48" viewBox="0 0 140 48" fill="none" xmlns="http://www.w3.org/2000/svg">
<mask id="path-2-inside-1_185_1018" fill="white">
<path fill-rule="evenodd" clip-rule="evenodd" d="M27.1819 20.4322C26.7947 21.8099 25.2112 22.6023 23.645 22.2022C22.0788 21.8021 21.1231 20.3609 21.5102 18.9833L23.1918 13C19.5683 13.3143 16.3663 15.7355 15.3697 19.2817C14.3214 23.0117 16.0389 26.827 19.3237 28.7483L17.6066 33.9457C17.5633 34.0284 17.5308 34.1008 17.5091 34.1628V34.3488C17.5091 34.5349 17.5741 34.69 17.7041 34.814C17.834 34.938 17.9965 35.0001 18.1914 35.0001H22.17C22.4516 35.0001 22.6683 34.9277 22.8199 34.783C22.9715 34.6589 23.0798 34.5142 23.1448 34.3488L24.3551 30.0015C28.1626 29.8585 31.5934 27.3853 32.6315 23.6916C33.6508 20.0645 32.0549 16.3568 28.9458 14.3883C28.4113 16.2755 27.7075 18.6536 27.3724 19.7858L27.3724 19.786C27.2657 20.1463 27.1965 20.3804 27.1819 20.4322Z"/>
</mask>
<path d="M23.645 22.2022L24.1401 20.2645L24.1401 20.2645L23.645 22.2022ZM27.1819 20.4322L25.2565 19.8911L25.2565 19.8911L27.1819 20.4322ZM21.5102 18.9833L23.4357 19.5244L23.4357 19.5244L21.5102 18.9833ZM23.1918 13L25.1172 13.5411L25.8994 10.7576L23.0189 11.0075L23.1918 13ZM15.3697 19.2817L13.4443 18.7406L13.4443 18.7406L15.3697 19.2817ZM19.3237 28.7483L21.2227 29.3757L21.7304 27.8391L20.3334 27.022L19.3237 28.7483ZM17.6066 33.9457L19.3782 34.8738L19.4542 34.7287L19.5056 34.5731L17.6066 33.9457ZM17.5091 34.1628L15.6209 33.5033L15.5091 33.8236V34.1628H17.5091ZM17.7041 34.814L16.3232 36.2608L16.3232 36.2608L17.7041 34.814ZM22.8199 34.783L21.5535 33.235L21.4944 33.2834L21.4391 33.3362L22.8199 34.783ZM23.1448 34.3488L25.0063 35.0802L25.0439 34.9844L25.0715 34.8852L23.1448 34.3488ZM24.3551 30.0015L24.28 28.0029L22.8201 28.0577L22.4283 29.4651L24.3551 30.0015ZM32.6315 23.6916L30.7061 23.1505L30.7061 23.1505L32.6315 23.6916ZM28.9458 14.3883L30.0157 12.6985L27.7518 11.2651L27.0215 13.8432L28.9458 14.3883ZM27.3724 19.7858L29.2881 20.3605L29.2902 20.3534L27.3724 19.7858ZM27.3724 19.786L25.4567 19.2113L25.4546 19.2184L27.3724 19.786ZM23.15 24.14C25.5477 24.7525 28.3683 23.6028 29.1073 20.9733L25.2565 19.8911C25.2343 19.9699 25.1632 20.0939 24.9605 20.1953C24.7553 20.298 24.4619 20.3467 24.1401 20.2645L23.15 24.14ZM19.5848 18.4422C18.8315 21.1228 20.7325 23.5224 23.15 24.14L24.1401 20.2645C23.8193 20.1825 23.6143 20.0083 23.5119 19.8539C23.4136 19.7058 23.4153 19.5969 23.4357 19.5244L19.5848 18.4422ZM21.2663 12.4589L19.5848 18.4422L23.4357 19.5244L25.1172 13.5411L21.2663 12.4589ZM17.2951 19.8228C18.0463 17.1498 20.4936 15.2415 23.3646 14.9925L23.0189 11.0075C18.643 11.387 14.6863 14.3212 13.4443 18.7406L17.2951 19.8228ZM20.3334 27.022C17.776 25.5261 16.5108 22.6133 17.2951 19.8228L13.4443 18.7406C12.132 23.41 14.3019 28.128 18.3139 30.4747L20.3334 27.022ZM19.5056 34.5731L21.2227 29.3757L17.4246 28.1209L15.7075 33.3183L19.5056 34.5731ZM19.3972 34.8222C19.3857 34.8552 19.3768 34.8755 19.3742 34.8814C19.3713 34.8877 19.372 34.8856 19.3782 34.8738L15.835 33.0176C15.7636 33.1539 15.6851 33.3195 15.6209 33.5033L19.3972 34.8222ZM19.5091 34.3488V34.1628H15.5091V34.3488H19.5091ZM19.0849 33.3672C19.2053 33.4821 19.3212 33.6378 19.4024 33.8316C19.4829 34.0238 19.5091 34.2048 19.5091 34.3488H15.5091C15.5091 35.0597 15.7823 35.7445 16.3232 36.2608L19.0849 33.3672ZM18.1914 33.0001C18.3084 33.0001 18.4643 33.0192 18.6367 33.0851C18.812 33.152 18.9641 33.2519 19.0849 33.3672L16.3232 36.2608C16.8585 36.7717 17.5301 37.0001 18.1914 37.0001V33.0001ZM22.17 33.0001H18.1914V37.0001H22.17V33.0001ZM21.4391 33.3362C21.7723 33.0181 22.1181 33.0001 22.17 33.0001V37.0001C22.7852 37.0001 23.5642 36.8373 24.2007 36.2298L21.4391 33.3362ZM21.2833 33.6174C21.3561 33.4323 21.468 33.305 21.5535 33.235L24.0863 36.331C24.4751 36.0129 24.8036 35.5961 25.0063 35.0802L21.2833 33.6174ZM22.4283 29.4651L21.2181 33.8125L25.0715 34.8852L26.2818 30.5379L22.4283 29.4651ZM30.7061 23.1505C29.9236 25.9346 27.2986 27.8895 24.28 28.0029L24.4301 32.0001C29.0266 31.8275 33.2632 28.836 34.5569 24.2327L30.7061 23.1505ZM27.876 16.0781C30.2934 17.6087 31.469 20.4357 30.7061 23.1505L34.5569 24.2327C35.8326 19.6933 33.8164 15.1049 30.0157 12.6985L27.876 16.0781ZM29.2902 20.3534C29.6246 19.2234 30.3319 16.8338 30.8701 14.9333L27.0215 13.8432C26.4908 15.7171 25.7904 18.0838 25.4546 19.2182L29.2902 20.3534ZM29.288 20.3607L29.2881 20.3605L25.4568 19.2111L25.4567 19.2113L29.288 20.3607ZM29.1073 20.9733C29.1069 20.9748 29.1077 20.9718 29.1108 20.9611C29.1136 20.9514 29.1174 20.9386 29.1222 20.9221C29.1318 20.8892 29.1447 20.8454 29.1608 20.7908C29.193 20.6817 29.2367 20.534 29.2901 20.3535L25.4546 19.2184C25.352 19.5651 25.276 19.8217 25.2565 19.8911L29.1073 20.9733Z" fill="#1C9287" mask="url(#path-2-inside-1_185_1018)"/>
<rect x="9" y="9" width="30" height="30" rx="7" stroke="#1C9287" stroke-width="2"/>
<path d="M54.2614 29H52.3977L56.5852 17.3636H58.6136L62.8011 29H60.9375L57.6477 19.4773H57.5568L54.2614 29ZM54.5739 24.4432H60.6193V25.9205H54.5739V24.4432ZM64.3452 32.2727V20.2727H66.0043V21.6875H66.1463C66.2448 21.5057 66.3868 21.2955 66.5724 21.0568C66.758 20.8182 67.0156 20.6098 67.3452 20.4318C67.6747 20.25 68.1103 20.1591 68.652 20.1591C69.3565 20.1591 69.9853 20.3371 70.5384 20.6932C71.0914 21.0492 71.5251 21.5625 71.8395 22.233C72.1577 22.9034 72.3168 23.7102 72.3168 24.6534C72.3168 25.5966 72.1596 26.4053 71.8452 27.0795C71.5308 27.75 71.099 28.267 70.5497 28.6307C70.0005 28.9905 69.3736 29.1705 68.669 29.1705C68.1387 29.1705 67.705 29.0814 67.3679 28.9034C67.0346 28.7254 66.7732 28.517 66.5838 28.2784C66.3944 28.0398 66.2486 27.8277 66.1463 27.642H66.044V32.2727H64.3452ZM66.0099 24.6364C66.0099 25.25 66.099 25.7879 66.277 26.25C66.455 26.7121 66.7126 27.0739 67.0497 27.3352C67.3868 27.5928 67.7997 27.7216 68.2884 27.7216C68.7959 27.7216 69.2202 27.5871 69.5611 27.3182C69.902 27.0455 70.1596 26.6761 70.3338 26.2102C70.5118 25.7443 70.6009 25.2197 70.6009 24.6364C70.6009 24.0606 70.5137 23.5436 70.3395 23.0852C70.169 22.6269 69.9115 22.2652 69.5668 22C69.2259 21.7348 68.7997 21.6023 68.2884 21.6023C67.7959 21.6023 67.3793 21.7292 67.0384 21.983C66.7012 22.2367 66.4455 22.5909 66.2713 23.0455C66.0971 23.5 66.0099 24.0303 66.0099 24.6364ZM74.2202 32.2727V20.2727H75.8793V21.6875H76.0213C76.1198 21.5057 76.2618 21.2955 76.4474 21.0568C76.633 20.8182 76.8906 20.6098 77.2202 20.4318C77.5497 20.25 77.9853 20.1591 78.527 20.1591C79.2315 20.1591 79.8603 20.3371 80.4134 20.6932C80.9664 21.0492 81.4001 21.5625 81.7145 22.233C82.0327 22.9034 82.1918 23.7102 82.1918 24.6534C82.1918 25.5966 82.0346 26.4053 81.7202 27.0795C81.4058 27.75 80.974 28.267 80.4247 28.6307C79.8755 28.9905 79.2486 29.1705 78.544 29.1705C78.0137 29.1705 77.58 29.0814 77.2429 28.9034C76.9096 28.7254 76.6482 28.517 76.4588 28.2784C76.2694 28.0398 76.1236 27.8277 76.0213 27.642H75.919V32.2727H74.2202ZM75.8849 24.6364C75.8849 25.25 75.974 25.7879 76.152 26.25C76.33 26.7121 76.5876 27.0739 76.9247 27.3352C77.2618 27.5928 77.6747 27.7216 78.1634 27.7216C78.6709 27.7216 79.0952 27.5871 79.4361 27.3182C79.777 27.0455 80.0346 26.6761 80.2088 26.2102C80.3868 25.7443 80.4759 25.2197 80.4759 24.6364C80.4759 24.0606 80.3887 23.5436 80.2145 23.0852C80.044 22.6269 79.7865 22.2652 79.4418 22C79.1009 21.7348 78.6747 21.6023 78.1634 21.6023C77.6709 21.6023 77.2543 21.7292 76.9134 21.983C76.5762 22.2367 76.3205 22.5909 76.1463 23.0455C75.9721 23.5 75.8849 24.0303 75.8849 24.6364ZM90.2216 17.3636V29H88.4659V17.3636H90.2216ZM96.3182 29.1761C95.4735 29.1761 94.7462 28.9848 94.1364 28.6023C93.5303 28.2159 93.0644 27.6837 92.7386 27.0057C92.4129 26.3277 92.25 25.5511 92.25 24.6761C92.25 23.7898 92.4167 23.0076 92.75 22.3295C93.0833 21.6477 93.553 21.1155 94.1591 20.733C94.7652 20.3504 95.4792 20.1591 96.3011 20.1591C96.964 20.1591 97.5549 20.2822 98.0739 20.5284C98.5928 20.7708 99.0114 21.1117 99.3295 21.5511C99.6515 21.9905 99.8428 22.5038 99.9034 23.0909H98.25C98.1591 22.6818 97.9508 22.3295 97.625 22.0341C97.303 21.7386 96.8712 21.5909 96.3295 21.5909C95.8561 21.5909 95.4413 21.7159 95.0852 21.9659C94.733 22.2121 94.4583 22.5644 94.2614 23.0227C94.0644 23.4773 93.9659 24.0152 93.9659 24.6364C93.9659 25.2727 94.0625 25.822 94.2557 26.2841C94.4489 26.7462 94.7216 27.1042 95.0739 27.358C95.4299 27.6117 95.8485 27.7386 96.3295 27.7386C96.6515 27.7386 96.9432 27.6799 97.2045 27.5625C97.4697 27.4413 97.6913 27.2689 97.8693 27.0455C98.0511 26.822 98.178 26.553 98.25 26.2386H99.9034C99.8428 26.803 99.6591 27.3068 99.3523 27.75C99.0455 28.1932 98.6345 28.5417 98.1193 28.7955C97.608 29.0492 97.0076 29.1761 96.3182 29.1761ZM105.396 29.1761C104.578 29.1761 103.864 28.9886 103.254 28.6136C102.644 28.2386 102.171 27.714 101.834 27.0398C101.497 26.3655 101.328 25.5777 101.328 24.6761C101.328 23.7708 101.497 22.9792 101.834 22.3011C102.171 21.6231 102.644 21.0966 103.254 20.7216C103.864 20.3466 104.578 20.1591 105.396 20.1591C106.214 20.1591 106.929 20.3466 107.538 20.7216C108.148 21.0966 108.622 21.6231 108.959 22.3011C109.296 22.9792 109.464 23.7708 109.464 24.6761C109.464 25.5777 109.296 26.3655 108.959 27.0398C108.622 27.714 108.148 28.2386 107.538 28.6136C106.929 28.9886 106.214 29.1761 105.396 29.1761ZM105.402 27.75C105.932 27.75 106.372 27.6098 106.72 27.3295C107.069 27.0492 107.326 26.6761 107.493 26.2102C107.663 25.7443 107.749 25.2311 107.749 24.6705C107.749 24.1136 107.663 23.6023 107.493 23.1364C107.326 22.6667 107.069 22.2898 106.72 22.0057C106.372 21.7216 105.932 21.5795 105.402 21.5795C104.868 21.5795 104.425 21.7216 104.072 22.0057C103.724 22.2898 103.464 22.6667 103.294 23.1364C103.127 23.6023 103.044 24.1136 103.044 24.6705C103.044 25.2311 103.127 25.7443 103.294 26.2102C103.464 26.6761 103.724 27.0492 104.072 27.3295C104.425 27.6098 104.868 27.75 105.402 27.75ZM113.06 23.8182V29H111.361V20.2727H112.991V21.6932H113.099C113.3 21.2311 113.615 20.8598 114.043 20.5795C114.474 20.2992 115.018 20.1591 115.673 20.1591C116.268 20.1591 116.789 20.2841 117.236 20.5341C117.683 20.7803 118.029 21.1477 118.276 21.6364C118.522 22.125 118.645 22.7292 118.645 23.4489V29H116.946V23.6534C116.946 23.0208 116.781 22.5265 116.452 22.1705C116.122 21.8106 115.67 21.6307 115.094 21.6307C114.7 21.6307 114.349 21.7159 114.043 21.8864C113.74 22.0568 113.499 22.3068 113.321 22.6364C113.147 22.9621 113.06 23.3561 113.06 23.8182Z" fill="#1C9287"/>
</svg>
