<svg width="48" height="48" viewBox="0 0 48 48" fill="none" xmlns="http://www.w3.org/2000/svg">
<g clip-path="url(#clip0_186_1400)">
<rect width="48" height="48" rx="16" fill="url(#paint0_linear_186_1400)"/>
<path d="M30.8571 13V20H17.1429V13H30.8571ZM32 12H16V21H32V12Z" fill="white"/>
<path d="M30 25.4286V32.5714H26V25.4286H30ZM31 24H25V34H31V24Z" fill="white"/>
<path d="M30.5 12.5L17.5 20.5" stroke="white" stroke-miterlimit="10"/>
<path d="M17.5 12.5L30.5 20.5" stroke="white" stroke-miterlimit="10"/>
<path d="M16 24.5H23" stroke="white" stroke-miterlimit="10"/>
<path d="M16 27.5H23" stroke="white" stroke-miterlimit="10"/>
<path d="M16.0001 30.5L23 30.5" stroke="white" stroke-miterlimit="10"/>
<path d="M16 33.5H23" stroke="white" stroke-miterlimit="10"/>
<path d="M26 25L30.5 33.5" stroke="white" stroke-miterlimit="10"/>
<rect x="13" y="9" width="22" height="30" rx="3" stroke="white" stroke-width="2"/>
</g>
<defs>
<linearGradient id="paint0_linear_186_1400" x1="9" y1="5" x2="38.5" y2="48" gradientUnits="userSpaceOnUse">
<stop stop-color="#45ACA3"/>
<stop offset="0.953686" stop-color="#1C9287"/>
</linearGradient>
<clipPath id="clip0_186_1400">
<rect width="48" height="48" rx="16" fill="white"/>
</clipPath>
</defs>
</svg>
