<svg width="137" height="48" viewBox="0 0 137 48" fill="none" xmlns="http://www.w3.org/2000/svg">
<g clip-path="url(#clip0_185_1065)">
<path fill-rule="evenodd" clip-rule="evenodd" d="M32.9552 24.4412C32.172 24.1334 31.3355 23.9839 30.4941 24.0014C29.6527 23.9839 28.8162 24.1334 28.0329 24.4412C27.2462 24.7504 26.529 25.2131 25.9233 25.8023C25.3176 26.3915 24.8356 27.0954 24.5054 27.8729C24.1751 28.6504 24.0034 29.4859 24.0001 30.3305L24 30.3305L24.0002 30.341C24.0301 32.0912 24.7396 33.7612 25.9787 34.9988C27.2119 36.2305 28.8738 36.938 30.6166 36.9741C31.361 37.0574 32.1143 36.939 32.7974 36.6312L32.3866 35.7195C31.8611 35.9562 31.281 36.0456 30.7085 35.9781L30.6836 35.9752L30.6585 35.9747C29.1655 35.9492 27.741 35.3456 26.6854 34.2912C25.631 33.2381 25.027 31.8177 25.0001 30.3291C25.0035 29.6194 25.1482 28.9173 25.4258 28.2639C25.704 27.6088 26.1102 27.0156 26.6206 26.5191C27.1311 26.0225 27.7355 25.6325 28.3987 25.3719C29.0618 25.1113 29.7704 24.9853 30.4828 25.0014L30.4941 25.0016L30.5053 25.0014C31.2178 24.9853 31.9263 25.1113 32.5895 25.3719C33.2526 25.6325 33.8571 26.0225 34.3675 26.5191C34.878 27.0156 35.2842 27.6088 35.5624 28.2639C35.8406 28.9189 35.9853 29.6228 35.9881 30.3343L35.9881 30.3501L35.9892 30.3658C36.0401 31.1283 35.8509 32.0789 35.5405 32.803C35.4116 33.1039 35.2119 33.4932 34.9932 33.8474C34.8659 34.0535 34.7426 34.2303 34.6326 34.3672L33.7927 35.2071L38.7927 40.2071L40.2069 38.7929L35.8221 34.4081C35.8295 34.3963 35.8367 34.3846 35.844 34.3729C36.0878 33.9781 36.3106 33.5449 36.4597 33.197C36.8207 32.3547 37.0474 31.2541 36.988 30.3149C36.9827 29.4756 36.811 28.6457 36.4828 27.8729C36.1526 27.0954 35.6705 26.3915 35.0648 25.8023C34.4591 25.2131 33.742 24.7504 32.9552 24.4412Z" fill="#40C3B8"/>
<path fill-rule="evenodd" clip-rule="evenodd" d="M34.026 32.0316C34.4156 30.9779 34.3398 29.7367 33.7151 28.6547C32.7753 27.027 30.9026 26.2948 29.2607 26.8025L30.0423 27.6601C31.0982 27.5484 32.2254 28.0746 32.849 29.1547C33.2235 29.8032 33.3342 30.5091 33.2277 31.1555L34.026 32.0316Z" fill="#40C3B8"/>
<path fill-rule="evenodd" clip-rule="evenodd" d="M34 10H10V14H34V10ZM10 32V15H34V25.5984C34.9218 26.3594 35.632 27.3981 36 28.6113V10C36 8.89543 35.1046 8 34 8H10C8.89543 8 8 8.89543 8 10V32C8 33.1046 8.89543 34 10 34H25.4392C25.027 33.407 24.7109 32.7331 24.5183 32H10ZM24.7611 28C24.6315 28.3214 24.5279 28.6558 24.4524 29H13V28H24.7611ZM27 25.2188C26.6611 25.4466 26.3475 25.7088 26.0632 26H13V25H27V25.2188ZM33 11H32V12H33V11ZM30 11H31V12H30V11ZM29 11H28V12H29V11ZM13 18H31V23H13V18Z" fill="#40C3B8"/>
<path d="M53.2784 29V17.3636H57.4261C58.3277 17.3636 59.0758 17.5189 59.6705 17.8295C60.2689 18.1402 60.7159 18.5701 61.0114 19.1193C61.3068 19.6648 61.4545 20.2955 61.4545 21.0114C61.4545 21.7235 61.3049 22.3504 61.0057 22.892C60.7102 23.4299 60.2633 23.8485 59.6648 24.1477C59.0701 24.447 58.322 24.5966 57.4205 24.5966H54.2784V23.0852H57.2614C57.8295 23.0852 58.2917 23.0038 58.6477 22.8409C59.0076 22.678 59.2708 22.4413 59.4375 22.1307C59.6042 21.8201 59.6875 21.447 59.6875 21.0114C59.6875 20.572 59.6023 20.1913 59.4318 19.8693C59.2652 19.5473 59.0019 19.3011 58.642 19.1307C58.286 18.9564 57.8182 18.8693 57.2386 18.8693H55.0341V29H53.2784ZM59.0227 23.75L61.8977 29H59.8977L57.0795 23.75H59.0227ZM67.1065 29.1761C66.2467 29.1761 65.5062 28.9924 64.8849 28.625C64.2675 28.2538 63.7902 27.733 63.4531 27.0625C63.1198 26.3883 62.9531 25.5985 62.9531 24.6932C62.9531 23.7992 63.1198 23.0114 63.4531 22.3295C63.7902 21.6477 64.2599 21.1155 64.8622 20.733C65.4683 20.3504 66.1766 20.1591 66.9872 20.1591C67.4796 20.1591 67.9569 20.2405 68.419 20.4034C68.8812 20.5663 69.2959 20.822 69.6634 21.1705C70.0308 21.5189 70.3205 21.9716 70.5327 22.5284C70.7448 23.0814 70.8509 23.7538 70.8509 24.5455V25.1477H63.9134V23.875H69.1861C69.1861 23.428 69.0952 23.0322 68.9134 22.6875C68.7315 22.339 68.4759 22.0644 68.1463 21.8636C67.8205 21.6629 67.438 21.5625 66.9986 21.5625C66.5213 21.5625 66.1046 21.6799 65.7486 21.9148C65.3963 22.1458 65.1236 22.4489 64.9304 22.8239C64.741 23.1951 64.6463 23.5985 64.6463 24.0341V25.0284C64.6463 25.6117 64.7486 26.108 64.9531 26.517C65.1615 26.9261 65.4512 27.2386 65.8224 27.4545C66.1937 27.6667 66.6274 27.7727 67.1236 27.7727C67.4455 27.7727 67.7391 27.7273 68.0043 27.6364C68.2694 27.5417 68.4986 27.4015 68.6918 27.2159C68.8849 27.0303 69.0327 26.8011 69.1349 26.5284L70.7429 26.8182C70.6141 27.2917 70.383 27.7064 70.0497 28.0625C69.7202 28.4148 69.3054 28.6894 68.8054 28.8864C68.3092 29.0795 67.7429 29.1761 67.1065 29.1761ZM79.2756 22.4034L77.7358 22.6761C77.6714 22.4792 77.5691 22.2917 77.429 22.1136C77.2926 21.9356 77.107 21.7898 76.8722 21.6761C76.6373 21.5625 76.3438 21.5057 75.9915 21.5057C75.5104 21.5057 75.1089 21.6136 74.7869 21.8295C74.465 22.0417 74.304 22.3163 74.304 22.6534C74.304 22.9451 74.4119 23.1799 74.6278 23.358C74.8438 23.536 75.1922 23.6818 75.6733 23.7955L77.0597 24.1136C77.8627 24.2992 78.4612 24.5852 78.8551 24.9716C79.2491 25.358 79.446 25.8598 79.446 26.4773C79.446 27 79.2945 27.4659 78.9915 27.875C78.6922 28.2803 78.2737 28.5985 77.7358 28.8295C77.2017 29.0606 76.5824 29.1761 75.8778 29.1761C74.9006 29.1761 74.1032 28.9678 73.4858 28.5511C72.8684 28.1307 72.4896 27.5341 72.3494 26.7614L73.9915 26.5114C74.0938 26.9394 74.304 27.2633 74.6222 27.483C74.9403 27.6989 75.3551 27.8068 75.8665 27.8068C76.4233 27.8068 76.8684 27.6913 77.2017 27.4602C77.535 27.2254 77.7017 26.9394 77.7017 26.6023C77.7017 26.3295 77.5994 26.1004 77.3949 25.9148C77.1941 25.7292 76.8854 25.589 76.4688 25.4943L74.9915 25.1705C74.1771 24.9848 73.5748 24.6894 73.1847 24.2841C72.7983 23.8788 72.6051 23.3655 72.6051 22.7443C72.6051 22.2292 72.7491 21.7784 73.0369 21.392C73.3248 21.0057 73.7225 20.7045 74.2301 20.4886C74.7377 20.2689 75.3191 20.1591 75.9744 20.1591C76.9176 20.1591 77.66 20.3636 78.2017 20.7727C78.7434 21.178 79.1013 21.7216 79.2756 22.4034ZM85.0753 29.1761C84.2154 29.1761 83.4749 28.9924 82.8537 28.625C82.2363 28.2538 81.759 27.733 81.4219 27.0625C81.0885 26.3883 80.9219 25.5985 80.9219 24.6932C80.9219 23.7992 81.0885 23.0114 81.4219 22.3295C81.759 21.6477 82.2287 21.1155 82.831 20.733C83.437 20.3504 84.1454 20.1591 84.956 20.1591C85.4484 20.1591 85.9257 20.2405 86.3878 20.4034C86.8499 20.5663 87.2647 20.822 87.6321 21.1705C87.9995 21.5189 88.2893 21.9716 88.5014 22.5284C88.7135 23.0814 88.8196 23.7538 88.8196 24.5455V25.1477H81.8821V23.875H87.1548C87.1548 23.428 87.0639 23.0322 86.8821 22.6875C86.7003 22.339 86.4446 22.0644 86.1151 21.8636C85.7893 21.6629 85.4067 21.5625 84.9673 21.5625C84.4901 21.5625 84.0734 21.6799 83.7173 21.9148C83.3651 22.1458 83.0923 22.4489 82.8991 22.8239C82.7098 23.1951 82.6151 23.5985 82.6151 24.0341V25.0284C82.6151 25.6117 82.7173 26.108 82.9219 26.517C83.1302 26.9261 83.42 27.2386 83.7912 27.4545C84.1624 27.6667 84.5961 27.7727 85.0923 27.7727C85.4143 27.7727 85.7079 27.7273 85.973 27.6364C86.2382 27.5417 86.4673 27.4015 86.6605 27.2159C86.8537 27.0303 87.0014 26.8011 87.1037 26.5284L88.7116 26.8182C88.5829 27.2917 88.3518 27.7064 88.0185 28.0625C87.6889 28.4148 87.2741 28.6894 86.7741 28.8864C86.2779 29.0795 85.7116 29.1761 85.0753 29.1761ZM93.2443 29.1932C92.6913 29.1932 92.1913 29.0909 91.7443 28.8864C91.2973 28.678 90.9432 28.3769 90.6818 27.983C90.4242 27.589 90.2955 27.1061 90.2955 26.5341C90.2955 26.0417 90.3902 25.6364 90.5795 25.3182C90.7689 25 91.0246 24.7481 91.3466 24.5625C91.6686 24.3769 92.0284 24.2367 92.4261 24.142C92.8239 24.0473 93.2292 23.9754 93.642 23.9261C94.1648 23.8655 94.589 23.8163 94.9148 23.7784C95.2405 23.7367 95.4773 23.6705 95.625 23.5795C95.7727 23.4886 95.8466 23.3409 95.8466 23.1364V23.0966C95.8466 22.6004 95.7064 22.2159 95.4261 21.9432C95.1496 21.6705 94.7367 21.5341 94.1875 21.5341C93.6155 21.5341 93.1648 21.661 92.8352 21.9148C92.5095 22.1648 92.2841 22.4432 92.1591 22.75L90.5625 22.3864C90.7519 21.8561 91.0284 21.428 91.392 21.1023C91.7595 20.7727 92.1818 20.5341 92.6591 20.3864C93.1364 20.2348 93.6383 20.1591 94.1648 20.1591C94.5133 20.1591 94.8826 20.2008 95.2727 20.2841C95.6667 20.3636 96.0341 20.5114 96.375 20.7273C96.7197 20.9432 97.0019 21.2519 97.2216 21.6534C97.4413 22.0511 97.5511 22.5682 97.5511 23.2045V29H95.892V27.8068H95.8239C95.714 28.0265 95.5492 28.2424 95.3295 28.4545C95.1098 28.6667 94.8277 28.8428 94.483 28.983C94.1383 29.1231 93.7254 29.1932 93.2443 29.1932ZM93.6136 27.8295C94.0833 27.8295 94.4848 27.7367 94.8182 27.5511C95.1553 27.3655 95.411 27.1231 95.5852 26.8239C95.7633 26.5208 95.8523 26.197 95.8523 25.8523V24.7273C95.7917 24.7879 95.6742 24.8447 95.5 24.8977C95.3295 24.947 95.1345 24.9905 94.9148 25.0284C94.6951 25.0625 94.4811 25.0947 94.2727 25.125C94.0644 25.1515 93.8902 25.1742 93.75 25.1932C93.4205 25.2348 93.1193 25.3049 92.8466 25.4034C92.5777 25.5019 92.3617 25.6439 92.1989 25.8295C92.0398 26.0114 91.9602 26.2538 91.9602 26.5568C91.9602 26.9773 92.1155 27.2955 92.4261 27.5114C92.7367 27.7235 93.1326 27.8295 93.6136 27.8295ZM103.49 29.1761C102.645 29.1761 101.918 28.9848 101.308 28.6023C100.702 28.2159 100.236 27.6837 99.9105 27.0057C99.5848 26.3277 99.4219 25.5511 99.4219 24.6761C99.4219 23.7898 99.5885 23.0076 99.9219 22.3295C100.255 21.6477 100.725 21.1155 101.331 20.733C101.937 20.3504 102.651 20.1591 103.473 20.1591C104.136 20.1591 104.727 20.2822 105.246 20.5284C105.765 20.7708 106.183 21.1117 106.501 21.5511C106.823 21.9905 107.015 22.5038 107.075 23.0909H105.422C105.331 22.6818 105.123 22.3295 104.797 22.0341C104.475 21.7386 104.043 21.5909 103.501 21.5909C103.028 21.5909 102.613 21.7159 102.257 21.9659C101.905 22.2121 101.63 22.5644 101.433 23.0227C101.236 23.4773 101.138 24.0152 101.138 24.6364C101.138 25.2727 101.234 25.822 101.428 26.2841C101.621 26.7462 101.893 27.1042 102.246 27.358C102.602 27.6117 103.02 27.7386 103.501 27.7386C103.823 27.7386 104.115 27.6799 104.376 27.5625C104.642 27.4413 104.863 27.2689 105.041 27.0455C105.223 26.822 105.35 26.553 105.422 26.2386H107.075C107.015 26.803 106.831 27.3068 106.524 27.75C106.217 28.1932 105.806 28.5417 105.291 28.7955C104.78 29.0492 104.179 29.1761 103.49 29.1761ZM110.591 23.8182V29H108.892V17.3636H110.568V21.6932H110.676C110.881 21.2235 111.193 20.8504 111.614 20.5739C112.034 20.2973 112.583 20.1591 113.261 20.1591C113.86 20.1591 114.383 20.2822 114.83 20.5284C115.28 20.7746 115.629 21.142 115.875 21.6307C116.125 22.1155 116.25 22.7216 116.25 23.4489V29H114.551V23.6534C114.551 23.0133 114.386 22.517 114.057 22.1648C113.727 21.8087 113.269 21.6307 112.682 21.6307C112.28 21.6307 111.92 21.7159 111.602 21.8864C111.288 22.0568 111.04 22.3068 110.858 22.6364C110.68 22.9621 110.591 23.3561 110.591 23.8182Z" fill="#40C4B8"/>
<rect x="8" y="44" width="122" height="4" rx="2" fill="url(#paint0_linear_185_1065)"/>
</g>
<defs>
<linearGradient id="paint0_linear_185_1065" x1="30.875" y1="44.4167" x2="30.9935" y2="49.6839" gradientUnits="userSpaceOnUse">
<stop stop-color="#61C7BE"/>
<stop offset="0.953686" stop-color="#37B0A6"/>
</linearGradient>
<clipPath id="clip0_185_1065">
<rect width="137" height="48" rx="8" fill="white"/>
</clipPath>
</defs>
</svg>
