<svg width="48" height="48" viewBox="0 0 48 48" fill="none" xmlns="http://www.w3.org/2000/svg">
<circle cx="24" cy="24" r="24" fill="url(#paint0_linear_146_899)"/>
<path d="M19.9403 32.9389C19.3545 33.5246 19.3545 34.4744 19.9403 35.0602C20.5261 35.646 21.4759 35.646 22.0616 35.0602L19.9403 32.9389ZM22.0616 12.9389C21.4758 12.3531 20.5261 12.3531 19.9403 12.9389C19.3545 13.5246 19.3545 14.4744 19.9403 15.0602L22.0616 12.9389ZM22.0616 35.0602L31.3545 25.7673L29.2332 23.646L19.9403 32.9389L22.0616 35.0602ZM31.3545 22.2317L22.0616 12.9389L19.9403 15.0602L29.2332 24.3531L31.3545 22.2317ZM31.3545 25.7673C32.3308 24.791 32.3308 23.2081 31.3545 22.2317L29.2332 24.3531C29.0379 24.1578 29.0379 23.8412 29.2332 23.646L31.3545 25.7673Z" fill="white"/>
<defs>
<linearGradient id="paint0_linear_146_899" x1="9" y1="5" x2="38.5" y2="48" gradientUnits="userSpaceOnUse">
<stop stop-color="#45ACA3"/>
<stop offset="0.953686" stop-color="#1C9287"/>
</linearGradient>
</defs>
</svg>
