<svg width="205" height="42" viewBox="0 0 205 42" fill="none" xmlns="http://www.w3.org/2000/svg">
<g clip-path="url(#clip0_180_1272)">
<path fill-rule="evenodd" clip-rule="evenodd" d="M171.208 34.4C170.915 34.4 170.675 34.3067 170.488 34.12C170.302 33.9067 170.208 33.6667 170.208 33.4V7C170.208 6.70667 170.302 6.46667 170.488 6.28C170.675 6.09333 170.915 6 171.208 6H175.928C176.222 6 176.462 6.09333 176.648 6.28C176.835 6.46667 176.928 6.70667 176.928 7V33.4C176.928 33.6667 176.835 33.9067 176.648 34.12C176.462 34.3067 176.222 34.4 175.928 34.4H171.208ZM56.28 34.12C56.4667 34.3067 56.7067 34.4 57 34.4H62.16C62.4533 34.4 62.6933 34.3067 62.88 34.12C63.0933 33.9067 63.2 33.6667 63.2 33.4V23.44H73.04V33.4C73.04 33.6667 73.1333 33.9067 73.32 34.12C73.5067 34.3067 73.7467 34.4 74.04 34.4H79.2C79.4933 34.4 79.7333 34.3067 79.92 34.12C80.1067 33.9067 80.2 33.6667 80.2 33.4V7.4C80.2 7.10667 80.1067 6.86667 79.92 6.68C79.7333 6.49333 79.4933 6.4 79.2 6.4H74.04C73.7467 6.4 73.5067 6.49333 73.32 6.68C73.1333 6.86667 73.04 7.10667 73.04 7.4V17.04H63.2V7.4C63.2 7.10667 63.0933 6.86667 62.88 6.68C62.6933 6.49333 62.4533 6.4 62.16 6.4H57C56.7067 6.4 56.4667 6.49333 56.28 6.68C56.0933 6.86667 56 7.10667 56 7.4V33.4C56 33.6933 56.0933 33.9333 56.28 34.12ZM89.5247 33.72C91.0714 34.44 92.9647 34.8 95.2047 34.8C97.4714 34.8 99.3647 34.44 100.885 33.72C102.431 33 103.605 31.9733 104.405 30.64C105.231 29.28 105.698 27.6667 105.805 25.8C105.831 25.2667 105.845 24.6667 105.845 24C105.845 23.3067 105.831 22.7067 105.805 22.2C105.698 20.3067 105.218 18.6933 104.365 17.36C103.511 16.0267 102.311 15 100.765 14.28C99.2447 13.56 97.3914 13.2 95.2047 13.2C93.0447 13.2 91.1914 13.56 89.6447 14.28C88.1247 15 86.938 16.0267 86.0847 17.36C85.2314 18.6933 84.7514 20.3067 84.6447 22.2C84.618 22.7067 84.6047 23.3067 84.6047 24C84.6047 24.6667 84.618 25.2667 84.6447 25.8C84.7514 27.6667 85.2047 29.28 86.0047 30.64C86.8314 31.9733 88.0047 33 89.5247 33.72ZM97.8047 28.84C97.2714 29.56 96.4047 29.92 95.2047 29.92C94.058 29.92 93.1914 29.56 92.6047 28.84C92.0447 28.12 91.738 27.04 91.6847 25.6C91.658 25.2 91.6447 24.6667 91.6447 24C91.6447 23.3333 91.658 22.8 91.6847 22.4C91.738 20.9867 92.0447 19.92 92.6047 19.2C93.1914 18.4533 94.058 18.08 95.2047 18.08C96.4047 18.08 97.2714 18.4533 97.8047 19.2C98.3647 19.92 98.6847 20.9867 98.7647 22.4C98.7914 22.8 98.8047 23.3333 98.8047 24C98.8047 24.6667 98.7914 25.2 98.7647 25.6C98.6847 27.04 98.3647 28.12 97.8047 28.84ZM110.818 34.4C110.524 34.4 110.284 34.3067 110.098 34.12C109.911 33.9067 109.818 33.6667 109.818 33.4V14.6C109.818 14.3067 109.911 14.0667 110.098 13.88C110.284 13.6933 110.524 13.6 110.818 13.6H115.178C115.471 13.6 115.711 13.6933 115.898 13.88C116.084 14.0667 116.178 14.3067 116.178 14.6V15.96C116.711 15.24 117.458 14.6133 118.418 14.08C119.378 13.52 120.511 13.2267 121.818 13.2C124.911 13.12 127.031 14.2667 128.178 16.64C128.791 15.6267 129.658 14.8 130.778 14.16C131.924 13.52 133.178 13.2 134.538 13.2C135.924 13.2 137.164 13.52 138.258 14.16C139.378 14.7733 140.271 15.7333 140.938 17.04C141.604 18.32 141.938 19.9867 141.938 22.04V33.4C141.938 33.6667 141.844 33.9067 141.658 34.12C141.471 34.3067 141.231 34.4 140.938 34.4H136.298C136.004 34.4 135.751 34.3067 135.538 34.12C135.351 33.9067 135.258 33.6667 135.258 33.4V22.32C135.258 21.3867 135.124 20.6533 134.858 20.12C134.591 19.56 134.231 19.16 133.778 18.92C133.324 18.68 132.804 18.56 132.218 18.56C131.738 18.56 131.258 18.68 130.778 18.92C130.324 19.16 129.951 19.56 129.658 20.12C129.391 20.6533 129.258 21.3867 129.258 22.32V33.4C129.258 33.6667 129.164 33.9067 128.978 34.12C128.791 34.3067 128.551 34.4 128.258 34.4H123.618C123.324 34.4 123.084 34.3067 122.898 34.12C122.711 33.9067 122.618 33.6667 122.618 33.4V22.32C122.618 21.3867 122.471 20.6533 122.178 20.12C121.884 19.56 121.511 19.16 121.058 18.92C120.604 18.68 120.111 18.56 119.578 18.56C119.071 18.56 118.578 18.68 118.098 18.92C117.644 19.16 117.271 19.56 116.978 20.12C116.711 20.6533 116.578 21.3733 116.578 22.28V33.4C116.578 33.6667 116.471 33.9067 116.258 34.12C116.071 34.3067 115.844 34.4 115.578 34.4H110.818ZM148.538 32.24C150.405 33.9467 152.912 34.8 156.058 34.8C157.685 34.8 159.112 34.6 160.338 34.2C161.565 33.8 162.578 33.2933 163.378 32.68C164.205 32.04 164.832 31.4 165.258 30.76C165.685 30.12 165.912 29.5733 165.938 29.12C165.965 28.8533 165.885 28.64 165.698 28.48C165.538 28.32 165.325 28.24 165.058 28.24H160.098C159.778 28.24 159.538 28.28 159.378 28.36C159.245 28.4133 159.058 28.5867 158.818 28.88C158.685 29.04 158.498 29.24 158.258 29.48C158.018 29.6933 157.712 29.8933 157.338 30.08C156.992 30.24 156.552 30.32 156.018 30.32C155.298 30.32 154.685 30.1333 154.178 29.76C153.698 29.3867 153.325 28.88 153.058 28.24C152.818 27.6 152.685 26.8933 152.658 26.12V25.96V25.84H165.458C165.752 25.84 165.992 25.7467 166.178 25.56C166.365 25.3733 166.458 25.1333 166.458 24.84V23.88C166.458 21.8267 166.072 20 165.298 18.4C164.525 16.8 163.365 15.5333 161.818 14.6C160.298 13.6667 158.365 13.2 156.018 13.2C153.965 13.2 152.165 13.6 150.618 14.4C149.098 15.1733 147.898 16.32 147.018 17.84C146.165 19.3333 145.698 21.1333 145.618 23.24V23.92V24.64C145.698 28 146.672 30.5333 148.538 32.24ZM159.418 21.88H152.658V21.8C152.658 20.92 152.792 20.1733 153.058 19.56C153.325 18.92 153.712 18.4267 154.218 18.08C154.725 17.7333 155.325 17.56 156.018 17.56C156.738 17.56 157.352 17.7333 157.858 18.08C158.392 18.4267 158.778 18.92 159.018 19.56C159.285 20.1733 159.418 20.92 159.418 21.8V21.88ZM182.934 41.76C183.094 41.92 183.294 42 183.534 42H187.934C188.28 42 188.547 41.9067 188.734 41.72C188.92 41.56 189.054 41.3733 189.134 41.16L191.541 35.5607C196.374 35.5334 200.786 32.2989 202.098 27.4052C203.305 22.9 201.533 18.2984 197.989 15.6924C197.235 18.4943 196.203 22.1606 195.72 23.8746L195.717 23.886C195.57 24.4067 195.475 24.7448 195.454 24.82C194.914 26.8354 192.765 28.0106 190.654 27.4449C188.543 26.8793 187.27 24.787 187.81 22.7717L190.261 13.6221C185.89 14.1073 182.054 17.2062 180.847 21.7112C179.569 26.4811 181.631 31.3591 185.599 33.8623L182.814 40.64C182.76 40.7467 182.72 40.84 182.694 40.92V41.16C182.694 41.4 182.774 41.6 182.934 41.76Z" fill="#333333"/>
<path d="M0 12.8C0 8.31958 0 6.07937 0.871948 4.36808C1.63893 2.86278 2.86278 1.63893 4.36808 0.871948C6.07937 0 8.31958 0 12.8 0H27.2C31.6804 0 33.9206 0 35.6319 0.871948C37.1372 1.63893 38.3611 2.86278 39.1281 4.36808C40 6.07937 40 8.31958 40 12.8V27.2C40 31.6804 40 33.9206 39.1281 35.6319C38.3611 37.1372 37.1372 38.3611 35.6319 39.1281C33.9206 40 31.6804 40 27.2 40H12.8C8.31958 40 6.07937 40 4.36808 39.1281C2.86278 38.3611 1.63893 37.1372 0.871948 35.6319C0 33.9206 0 31.6804 0 27.2V12.8Z" fill="url(#paint0_linear_180_1272)"/>
<path fill-rule="evenodd" clip-rule="evenodd" d="M23.9847 20.198C23.4447 22.2133 21.2956 23.3885 19.1846 22.8228C17.0736 22.2572 15.8 20.1649 16.34 18.1496L18.7917 9C14.4199 9.48524 10.5846 12.5841 9.37755 17.0891C8.0828 21.9212 10.2155 26.8641 14.2853 29.3369L12.3798 36.0179C12.3264 36.1246 12.2864 36.2179 12.2598 36.2979V36.5379C12.2598 36.7779 12.3398 36.9779 12.4998 37.1379C12.6598 37.2979 12.8598 37.3779 13.0998 37.3779H17.4998C17.8464 37.3779 18.1131 37.2846 18.2998 37.0979C18.4864 36.9379 18.6198 36.7513 18.6998 36.5379L20.3679 30.9329C25.0836 30.778 29.3435 27.5765 30.6279 22.7831C31.8351 18.2779 30.0628 13.6763 26.519 11.0703C25.7656 13.8722 24.7328 17.5385 24.25 19.2525L24.25 19.2525C24.1015 19.7797 24.005 20.1221 23.9847 20.198Z" fill="url(#paint1_linear_180_1272)"/>
</g>
<defs>
<linearGradient id="paint0_linear_180_1272" x1="20" y1="0" x2="20" y2="40" gradientUnits="userSpaceOnUse">
<stop stop-color="#714D24"/>
<stop offset="1" stop-color="#56350E"/>
</linearGradient>
<linearGradient id="paint1_linear_180_1272" x1="25" y1="10.5" x2="15.4999" y2="38.0001" gradientUnits="userSpaceOnUse">
<stop stop-color="#D8A84A"/>
<stop offset="0.409375" stop-color="#DFB158"/>
<stop offset="0.671978" stop-color="#D3A13F"/>
<stop offset="1" stop-color="#C08C26"/>
</linearGradient>
<clipPath id="clip0_180_1272">
<rect width="205" height="42" fill="white"/>
</clipPath>
</defs>
</svg>
