<svg width="32" height="32" viewBox="0 0 32 32" fill="none" xmlns="http://www.w3.org/2000/svg">
<rect x="9.5" y="12.5" width="15" height="15" rx="0.5" stroke="#2D2D2D"/>
<mask id="path-2-inside-1_21_203" fill="white">
<path fill-rule="evenodd" clip-rule="evenodd" d="M15.6795 4.19277C15.1375 4.08632 14.6119 4.43935 14.5055 4.98129L12.9305 13H23C23.5523 13 24 13.4477 24 14V20.0945L24.1315 20.1204C24.6734 20.2268 25.199 19.8738 25.3055 19.3318L27.6182 7.55683C27.7247 7.0149 27.3717 6.48929 26.8297 6.38285L15.6795 4.19277Z"/>
</mask>
<path d="M14.5055 4.98129L15.4867 5.17402L15.4867 5.17402L14.5055 4.98129ZM15.6795 4.19277L15.8722 3.21151L15.8722 3.21151L15.6795 4.19277ZM12.9305 13L11.9492 12.8073L11.715 14H12.9305V13ZM24 20.0945H23V20.9172L23.8073 21.0758L24 20.0945ZM24.1315 20.1204L24.3242 19.1391L24.3242 19.1391L24.1315 20.1204ZM25.3055 19.3318L24.3242 19.1391L24.3242 19.1391L25.3055 19.3318ZM27.6182 7.55683L26.637 7.3641L26.637 7.3641L27.6182 7.55683ZM26.8297 6.38285L26.637 7.3641L26.637 7.3641L26.8297 6.38285ZM15.4867 5.17402L15.4867 5.17402L15.8722 3.21151C14.7883 2.99863 13.7371 3.70469 13.5242 4.78855L15.4867 5.17402ZM13.9117 13.1928L15.4867 5.17402L13.5242 4.78855L11.9492 12.8073L13.9117 13.1928ZM12.9305 14H23V12H12.9305V14ZM23 14H25C25 12.8955 24.1046 12 23 12V14ZM23 14V20.0945H25V14H23ZM24.3242 19.1391L24.1927 19.1133L23.8073 21.0758L23.9387 21.1016L24.3242 19.1391ZM24.3242 19.1391L24.3242 19.1391L23.9387 21.1016C25.0226 21.3145 26.0738 20.6084 26.2867 19.5246L24.3242 19.1391ZM26.637 7.3641L24.3242 19.1391L26.2867 19.5246L28.5995 7.74956L26.637 7.3641ZM26.637 7.3641L26.637 7.3641L28.5995 7.74956C28.8124 6.6657 28.1063 5.61448 27.0225 5.40159L26.637 7.3641ZM15.4867 5.17402L26.637 7.3641L27.0225 5.40159L15.8722 3.21151L15.4867 5.17402Z" fill="#2D2D2D" mask="url(#path-2-inside-1_21_203)"/>
<circle cx="14.5" cy="23.5" r="4.5" fill="#2D2D2D"/>
<circle cx="21.5" cy="16.5" r="2.5" fill="#2D2D2D"/>
<circle cx="22.5" cy="24.5" r="1.5" fill="#2D2D2D"/>
<path fill-rule="evenodd" clip-rule="evenodd" d="M16.5 11.9998C16.5 10.8122 16.7433 9.30571 17.535 8.17161C18.2971 7.0799 19.6138 6.26386 21.9502 6.4975L22.0498 5.50246C19.3862 5.23612 17.7029 6.184 16.715 7.59921C15.7567 8.97204 15.5 10.7154 15.5 11.9998H16.5ZM18.2585 12.0002C18.5968 11.4372 19.0517 10.8814 19.6303 10.4049C21.055 9.23173 23.2532 8.52409 26.3529 9.47793L26.6471 8.52216C23.2468 7.47584 20.695 8.23284 18.9947 9.63297C18.1596 10.3206 17.5352 11.1601 17.1199 12.0002H18.2585ZM21.5303 12.0002H19.8268C21.284 10.6871 23.4088 9.88949 26.1203 10.5619L25.8797 11.5325C24.1097 11.0936 22.6619 11.3692 21.5303 12.0002Z" fill="#2D2D2D"/>
<path fill-rule="evenodd" clip-rule="evenodd" d="M7.15962 19.8856L5.01714 8.07837L14.5515 6.34831L14.6105 5.98676C14.6721 5.60891 14.938 5.31531 15.2769 5.20034L4.8386 7.09443C4.29519 7.19304 3.9346 7.7135 4.03321 8.25691L6.17568 20.0641C6.27429 20.6075 6.79474 20.9681 7.33816 20.8695L10 20.3865V14C10 13.4477 10.4477 13 11 13H13.4661L13.6293 12H11C9.89543 12 9 12.8954 9 14V19.5516L7.15962 19.8856ZM16.3578 5.25865C16.1564 5.13684 15.9116 5.08519 15.6619 5.1305L15.5645 5.14816C15.6283 5.14613 15.6932 5.1502 15.7585 5.16086L16.3578 5.25865Z" fill="#2D2D2D"/>
<path fill-rule="evenodd" clip-rule="evenodd" d="M7.85887 20.5215L7.72542 20.544L7.00002 20L13 12L13.8 12.6L7.85887 20.5215ZM14.7406 5.5127L14.8222 5.56921L5.93103 18.412L5.69279 16.9993L13.5003 5.72186L14.7406 5.5127ZM9.78195 6.34893L10.3933 6.24582L10.848 6.53L5.84802 14.53L5.209 14.1306L5.14725 13.7644L9.78195 6.34893ZM4.77966 11.5847L4.55603 10.2587L7.00002 7L7.80002 7.6L4.80002 11.6L4.77966 11.5847Z" fill="#2D2D2D"/>
<path fill-rule="evenodd" clip-rule="evenodd" d="M11.5 18C13.433 18 15 16.433 15 14.5C15 13.5207 14.5978 12.6353 13.9495 12H10C9.44772 12 9 12.4477 9 13V16.9495C9.63526 17.5978 10.5207 18 11.5 18Z" fill="#2D2D2D"/>
</svg>
