<svg width="32" height="32" viewBox="0 0 32 32" fill="none" xmlns="http://www.w3.org/2000/svg">
<path fill-rule="evenodd" clip-rule="evenodd" d="M17.3492 19.3789C17.121 19.8565 17.0023 20.3696 17 20.8883C17.0209 21.9685 17.5136 22.9994 18.3743 23.7633C19.235 24.5273 20.3964 24.9646 21.6134 24.9831C22.1105 25.0352 23.5 24.9831 24.6638 24C24.9933 23.7633 25.4184 23.0992 25.627 22.6667C25.8795 22.143 26.0358 21.4567 25.993 20.8883C25.9908 20.3696 25.8721 19.8565 25.6439 19.3789C25.4156 18.9014 25.0825 18.4691 24.6638 18.1071C24.2452 17.7452 23.7495 17.461 23.2056 17.271C22.6618 17.0811 22.0808 16.9893 21.4965 17.001C20.9123 16.9893 20.3313 17.0811 19.7874 17.271C19.2436 17.461 18.7479 17.7452 18.3292 18.1071C17.9106 18.4691 17.5774 18.9014 17.3492 19.3789ZM17.7105 24.5112C18.751 25.4348 20.1299 25.9511 21.5565 25.9822C22.0556 26.0263 23.0572 25.9921 24.1061 25.5205L26.5903 28.0071L28.0052 26.5936L25.7448 24.331C25.846 24.2091 25.936 24.0866 26.0119 23.9775C26.214 23.6867 26.3994 23.3671 26.5277 23.1011C26.8382 22.4572 27.0419 21.6124 26.9927 20.8495C26.9848 20.1918 26.8317 19.5453 26.5461 18.9477C26.2557 18.3402 25.8359 17.7985 25.3178 17.3506C24.8 16.903 24.1932 16.5567 23.5353 16.327C22.8838 16.0994 22.1913 15.9893 21.4965 16.0008C20.8018 15.9893 20.1093 16.0994 19.4577 16.327C18.7999 16.5567 18.1931 16.903 17.6752 17.3506C17.1572 17.7985 16.7373 18.3402 16.447 18.9477C16.1564 19.5558 16.0029 20.2144 16.0001 20.884L16 20.8957L16.0002 20.9075C16.0268 22.2867 16.6562 23.5755 17.7105 24.5112Z" fill="white"/>
<path fill-rule="evenodd" clip-rule="evenodd" d="M24.4752 22.8007C25.0094 21.9589 25.1618 20.9267 24.7976 19.9747C24.2339 18.5015 22.6207 17.7114 20.9999 18.0174L21.6774 18.9499C22.6817 18.9423 23.5481 19.5075 23.8636 20.3321C24.0536 20.8285 24.0322 21.3881 23.8208 21.9001L24.4752 22.8007Z" fill="white"/>
<path fill-rule="evenodd" clip-rule="evenodd" d="M23 6H6V9H23V6ZM6 22L6 10H23V16.565C23.7653 16.8107 24.4521 17.2339 25 17.7907V6C25 4.89543 24.1046 4 23 4H6C4.89543 4 4 4.89543 4 6V22C4 23.1046 4.89543 24 6 24H17.4806C17.0141 23.4323 16.6802 22.7535 16.5294 22H6ZM16.956 19.0001C16.7922 19.3169 16.6644 19.6521 16.577 20.0001H8V19.0001H16.956ZM18.6782 17.1244C18.292 17.3707 17.9453 17.6662 17.6465 18.0001H8V17.0001H18.6782V17.1244ZM18 7H17V8H18V7ZM19 7H20V8H19V7ZM22 7H21V8H22V7ZM8 12H22V15H8V12Z" fill="white"/>
</svg>
